<?xml version="1.0" encoding="utf-8"?>
<!-- Generator: Adobe Illustrator 19.0.0, SVG Export Plug-In . SVG Version: 6.00 Build 0)  -->
<svg version="1.1" xmlns="http://www.w3.org/2000/svg" xmlns:xlink="http://www.w3.org/1999/xlink" x="0px" y="0px" width="1500px"
	 height="1500px" viewBox="0 0 1500 1500" enable-background="new 0 0 1500 1500" xml:space="preserve">
<g id="VIEWS">
	<g id="DRIVER">
		<path id="XMLID_530_" fill="#7A7A7B" d="M54.3,400.6l83.9,16.4l701.7-0.8l39.9-26.5c-1.1-54-45.3-97.2-97-97.6
			c-54.5-0.4-100.7,46.7-98.5,103.6c-128.7,0.2-257.3,0.5-386,0.7c2.8-57.8-41.4-106.1-94.1-109.5c-56.9-3.6-109.5,46.1-107.3,108.7
			C82.6,397.3,68.4,399,54.3,400.6"/>
		<path id="XMLID_529_" fill="none" stroke="#282828" stroke-width="0.691" stroke-linejoin="round" d="M54.3,400.6l83.9,16.4
			l701.7-0.8l39.9-26.5c-1.1-54-45.3-97.2-97-97.6c-54.5-0.4-100.7,46.7-98.5,103.6c-128.7,0.2-257.3,0.5-386,0.7
			c2.8-57.8-41.4-106.1-94.1-109.5c-56.9-3.6-109.5,46.1-107.3,108.7C82.6,397.3,68.4,399,54.3,400.6z"/>
		<path id="XMLID_528_" fill="#FFFFFF" d="M990.8,337.7l-4-5.5l0.5-25.3c0.1-2.8-0.7-5.5-2.3-7.8l-15.1-22.7l-66.4-6.9l-17.9-14.2
			l85.4-14.4c2-3.8,4-7.7,6-11.5c-16.5-3.2-33-6.3-49.4-9.5c-3.2,0.4-9.9,1.1-9.9,1.1c-25.7-6.7-51.8-13.9-78.4-21.5
			c-29.8-8.6-58.9-17.4-87.1-26.5l2.3-9c-53.7-11.6-122.5-21.1-202.4-18.5c-48.5,1.5-92,7.2-129.5,14.4c1.8,2.4,3.6,4.7,5.5,7.1
			c-24.3,7.7-51.7,18.1-81,32.5c-19.1,9.3-36.3,19-51.7,28.6c-7.4,4.6-15.8,7.5-24.5,8.6c-5.3,0.6-10.5,1.4-15.8,1.1l-6-2.9
			l-6.8-3.3c-35.8,0.9-83.7,4-138.3,23c-32.9,11.4-60.5,25.2-82.6,38.3c-1.4,5.6-2.6,12.2-3.3,19.7c-0.7,8.6,4.1,62.5,4.9,68.4
			c0.2,1.7,0.5,3.4,0.8,5.1c1,6.4,6.1,11.4,12.5,12.3c5.9,0.8,11.9,1.6,17.9,2.3c20.4,2.5,59.1,5.5,59.1,5.5
			c-6.4-42.3,12.9-82.3,46.5-99.6c2.3-1.2,36.9-18.2,72.8-1.6c35.6,16.4,56.7,58.7,49.8,104c271.7,0.7,421.4,1.1,421.4,1.1
			c0,0,0,0,0,0c0,0,0,0,0,0c0,0-9.4-71.5,42.2-98.5c36.6-19.1,83.2-4.9,103.1,20.1c19.5,24.5,22.7,71.3,22.8,71.9
			c6.4-0.2,41.8-1.3,68.4-5.1c5.1-0.7,12.7-1.9,21.5-6.2c8.7-4.2,14.5-9.5,17.5-12.4c5.7-5.7,9.5-11.5,11.9-16.2
			c1.1-2,1.6-4.3,1.6-6.6l0-12.7C992.8,341.9,992.1,339.6,990.8,337.7"/>
		<path id="XMLID_527_" fill="none" stroke="#282828" stroke-width="1.224" stroke-linejoin="round" d="M990.8,337.7l-4-5.5
			l0.5-25.3c0.1-2.8-0.7-5.5-2.3-7.8l-15.1-22.7l-66.4-6.9l-17.9-14.2l85.4-14.4c2-3.8,4-7.7,6-11.5c-16.5-3.2-33-6.3-49.4-9.5
			c-3.2,0.4-9.9,1.1-9.9,1.1c-25.7-6.7-51.8-13.9-78.4-21.5c-29.8-8.6-58.9-17.4-87.1-26.5l2.3-9c-53.7-11.6-122.5-21.1-202.4-18.5
			c-48.5,1.5-92,7.2-129.5,14.4c1.8,2.4,3.6,4.7,5.5,7.1c-24.3,7.7-51.7,18.1-81,32.5c-19.1,9.3-36.3,19-51.7,28.6
			c-7.4,4.6-15.8,7.5-24.5,8.6c-5.3,0.6-10.5,1.4-15.8,1.1l-6-2.9l-6.8-3.3c-35.8,0.9-83.7,4-138.3,23
			c-32.9,11.4-60.5,25.2-82.6,38.3c-1.4,5.6-2.6,12.2-3.3,19.7c-0.7,8.6,4.1,62.5,4.9,68.4c0.2,1.7,0.5,3.4,0.8,5.1
			c1,6.4,6.1,11.4,12.5,12.3c5.9,0.8,11.9,1.6,17.9,2.3c20.4,2.5,59.1,5.5,59.1,5.5c-6.4-42.3,12.9-82.3,46.5-99.6
			c2.3-1.2,36.9-18.2,72.8-1.6c35.6,16.4,56.7,58.7,49.8,104c271.7,0.7,421.4,1.1,421.4,1.1c0,0,0,0,0,0c0,0,0,0,0,0
			c0,0-9.4-71.5,42.2-98.5c36.6-19.1,83.2-4.9,103.1,20.1c19.5,24.5,22.7,71.3,22.8,71.9c6.4-0.2,41.8-1.3,68.4-5.1
			c5.1-0.7,12.7-1.9,21.5-6.2c8.7-4.2,14.5-9.5,17.5-12.4c5.7-5.7,9.5-11.5,11.9-16.2c1.1-2,1.6-4.3,1.6-6.6l0-12.7
			C992.8,341.9,992.1,339.6,990.8,337.7z"/>
		<path id="XMLID_526_" fill="none" stroke="#282828" stroke-width="0.691" stroke-linejoin="round" d="M298.2,243.9l464.4-15.6
			c8.7-0.3,17.1-3.6,23.6-9.4l8.2-7.3c3.6-3.2,2.4-9.1-2.1-10.6c-26-8.8-61.8-19.3-105.2-27.1c-58.7-10.5-143.6-25.8-243,0.7
			C410,183.7,356.6,202.4,298.2,243.9z"/>
		<path id="XMLID_525_" fill="#A5A4A4" d="M35.7,343.2c2.3-3.2,3.3-7.5,2.7-11.7c-1.2-8.1-3.8-18.5-9.7-28.7
			c-2.3-4.1-4.8-7.5-7.1-10.2c-1.4,12.1-2.3,26.5-1.6,42.6c0.3,7.2,0.9,14,1.6,20.5c2.6-1.4,6.2-3.7,9.9-7.4
			C33.1,346.5,34.5,344.8,35.7,343.2"/>
		<path id="XMLID_524_" fill="none" stroke="#282828" stroke-width="0.691" stroke-linejoin="round" d="M35.7,343.2
			c2.3-3.2,3.3-7.5,2.7-11.7c-1.2-8.1-3.8-18.5-9.7-28.7c-2.3-4.1-4.8-7.5-7.1-10.2c-1.4,12.1-2.3,26.5-1.6,42.6
			c0.3,7.2,0.9,14,1.6,20.5c2.6-1.4,6.2-3.7,9.9-7.4C33.1,346.5,34.5,344.8,35.7,343.2z"/>
		<path id="XMLID_523_" fill="#A5A4A4" d="M43.6,359.1l29.6-7c4.8-1.1,9.7,1.7,11.1,6.5l2.2,7.4c1.8,5.8-2.2,11.9-8.2,12.4L47.6,381
			c-4.3,0.4-8.3-2.3-9.7-6.4c-0.3-1-0.7-1.9-1-2.9c0,0,0-0.1,0-0.1C35,366.2,38.2,360.4,43.6,359.1"/>
		<path id="XMLID_522_" fill="none" stroke="#282828" stroke-width="0.691" stroke-linejoin="round" d="M43.6,359.1l29.6-7
			c4.8-1.1,9.7,1.7,11.1,6.5l2.2,7.4c1.8,5.8-2.2,11.9-8.2,12.4L47.6,381c-4.3,0.4-8.3-2.3-9.7-6.4c-0.3-1-0.7-1.9-1-2.9
			c0,0,0-0.1,0-0.1C35,366.2,38.2,360.4,43.6,359.1z"/>
		<path id="XMLID_521_" fill="#FFFFFF" d="M79.2,365c0-5.2-1.8-9.4-4-9.4c-2.2,0-4,4.2-4,9.4c0,5.2,1.8,9.4,4,9.4
			C77.4,374.4,79.2,370.2,79.2,365"/>
		
			<ellipse id="XMLID_520_" fill="none" stroke="#282828" stroke-width="0.691" stroke-linejoin="round" cx="75.1" cy="365" rx="4" ry="9.4"/>
		<path id="XMLID_519_" fill="#A5A4A4" d="M270.9,236.6c8.7-1.1,17-3.9,24.5-8.6c15.4-9.6,32.6-19.3,51.7-28.6
			c29.2-14.3,56.7-24.8,81-32.5c-1.8-2.4-3.6-4.7-5.5-7.1c-25.9,8.7-53.4,19-82.1,31.2c-33.4,14.2-63.8,29-91.4,43.8l6,2.9
			C260.4,238,265.6,237.2,270.9,236.6"/>
		<path id="XMLID_518_" fill="none" stroke="#282828" stroke-width="0.691" stroke-linejoin="round" d="M270.9,236.6
			c8.7-1.1,17-3.9,24.5-8.6c15.4-9.6,32.6-19.3,51.7-28.6c29.2-14.3,56.7-24.8,81-32.5c-1.8-2.4-3.6-4.7-5.5-7.1
			c-25.9,8.7-53.4,19-82.1,31.2c-33.4,14.2-63.8,29-91.4,43.8l6,2.9C260.4,238,265.6,237.2,270.9,236.6z"/>
		<path id="XMLID_517_" fill="#A5A4A4" d="M540.2,166.4c-32.5,1.3-63.6,5.9-94.5,14.2c-44.1,11.8-86.5,30.7-126.3,56.4l200.6-6.7
			C525.6,212.9,535.1,183.1,540.2,166.4"/>
		<path id="XMLID_516_" fill="none" stroke="#282828" stroke-width="0.691" stroke-linejoin="round" d="M540.2,166.4
			c-32.5,1.3-63.6,5.9-94.5,14.2c-44.1,11.8-86.5,30.7-126.3,56.4l200.6-6.7C525.6,212.9,535.1,183.1,540.2,166.4z"/>
		<path id="XMLID_515_" fill="#A5A4A4" d="M687.4,180.2c-0.5-0.1-0.9-0.2-1.4-0.3c-31.7-5.7-70.4-12.6-115-13.7l-5,62.5l149.8-5
			L687.4,180.2z"/>
		<path id="XMLID_514_" fill="none" stroke="#282828" stroke-width="0.691" stroke-linejoin="round" d="M687.4,180.2
			c-0.5-0.1-0.9-0.2-1.4-0.3c-31.7-5.7-70.4-12.6-115-13.7l-5,62.5l149.8-5L687.4,180.2z"/>
		<path id="XMLID_513_" fill="#A5A4A4" d="M706.9,184l29.6,38.9l25.9-0.9c7.3-0.2,14.3-3,19.7-7.9l8.2-7.4
			C763.1,197.6,735.1,190,706.9,184"/>
		<path id="XMLID_512_" fill="none" stroke="#282828" stroke-width="0.691" stroke-linejoin="round" d="M706.9,184l29.6,38.9
			l25.9-0.9c7.3-0.2,14.3-3,19.7-7.9l8.2-7.4C763.1,197.6,735.1,190,706.9,184z"/>
		<path id="XMLID_511_" fill="#A5A4A4" d="M839.2,199.4c26.6,7.7,52.8,14.8,78.4,21.5c0,0,6.6-0.7,9.8-1.1
			c-28.6-11-59-21.8-91.2-32.1c-28.2-9-55.5-16.9-81.8-23.8l-2.3,9C780.3,182,809.4,190.8,839.2,199.4"/>
		<path id="XMLID_510_" fill="none" stroke="#282828" stroke-width="0.691" stroke-linejoin="round" d="M839.2,199.4
			c26.6,7.7,52.8,14.8,78.4,21.5c0,0,6.6-0.7,9.8-1.1c-28.6-11-59-21.8-91.2-32.1c-28.2-9-55.5-16.9-81.8-23.8l-2.3,9
			C780.3,182,809.4,190.8,839.2,199.4z"/>
		<path id="XMLID_509_" fill="none" stroke="#282828" stroke-width="0.691" stroke-linejoin="round" d="M103.7,267.8
			c30.2-9.2,55.7-14,74.1-16.6c24.5-3.5,45-4.6,70.8-5.8c20.5-1,37.6-1.4,49.6-1.5"/>
		<path id="XMLID_508_" fill="none" stroke="#282828" stroke-width="0.691" stroke-linejoin="round" d="M93.7,291.2
			c14.1,11.3,28.2,22.5,42.3,33.8"/>
		<path id="XMLID_507_" fill="none" stroke="#282828" stroke-width="0.691" stroke-linejoin="round" d="M511.3,260.1
			c0-2.1-9.9-3.6-22.1-3.4c-12.2,0.2-22,2-22,4.1c0,2.1,9.9,3.6,22.1,3.4C501.5,264,511.4,262.1,511.3,260.1z"/>
		<path id="XMLID_506_" fill="none" stroke="#282828" stroke-width="0.691" stroke-linejoin="round" d="M739.2,256.3
			c0-2.1-9.9-3.6-22.1-3.4c-12.2,0.2-22,2-22,4.1c0,2.1,9.9,3.6,22.1,3.4C729.3,260.2,739.2,258.4,739.2,256.3z"/>
		<path id="XMLID_505_" fill="none" stroke="#282828" stroke-width="0.691" stroke-linejoin="round" d="M555.6,159.9l-15.3,75.9
			c-2.9,10-5.5,20.7-7.7,31.8c-9.1,46.2-8.7,87.9-4.9,122"/>
		<path id="XMLID_504_" fill="none" stroke="#282828" stroke-width="0.691" stroke-linejoin="round" d="M314.2,243.9
			c-4,11.3-7.7,24.3-10.2,38.7c-7.8,44.2-1.6,82.1,5.1,107.1h364.1c25.1-35.9,45.6-64.8,64.6-90.3c8.3-11.2,21-28,17.1-47.1
			c-2.1-10.7-8.8-18.5-13.9-23.3c-13.3-17.5-26.6-35-39.9-52.4"/>
		<path id="XMLID_503_" fill="#A5A4A4" d="M104.3,267.8c-0.2,0-0.4,0-0.6,0c-10.4,2.3-22.9,6-36.5,12c-12.5,5.5-22.9,11.7-31.4,17.5
			c-1.6,1.1-0.7,3.7,1.2,3.5c8.4-0.8,17.2-2,26.2-3.5c30-5,56.3-12.8,78.7-21.3c1.8-0.7,1.5-3.4-0.5-3.7
			C129,270.9,116.7,269.3,104.3,267.8"/>
		<path id="XMLID_502_" fill="#A5A4A4" d="M903.4,269.5l66.4,6.9c1.2-5.4,2.1-12.1,2.2-19.7c0.1-6-0.4-11.3-1.1-15.9l-85.4,14.4
			L903.4,269.5z"/>
		<path id="XMLID_501_" fill="#FFFFFF" d="M104.3,267.8c-0.2,0-0.4,0-0.6,0c-10.4,2.3-22.9,6-36.5,12c-12.5,5.5-22.9,11.7-31.4,17.5
			c-1.6,1.1-0.7,3.7,1.2,3.5c8.4-0.8,17.2-2,26.2-3.5c30-5,56.3-12.8,78.7-21.3c1.8-0.7,1.5-3.4-0.5-3.7
			C129,270.9,116.7,269.3,104.3,267.8"/>
		<path id="XMLID_500_" fill="none" stroke="#282828" stroke-width="0.691" stroke-linejoin="round" d="M104.3,267.8
			c-0.2,0-0.4,0-0.6,0c-10.4,2.3-22.9,6-36.5,12c-12.5,5.5-22.9,11.7-31.4,17.5c-1.6,1.1-0.7,3.7,1.2,3.5c8.4-0.8,17.2-2,26.2-3.5
			c30-5,56.3-12.8,78.7-21.3c1.8-0.7,1.5-3.4-0.5-3.7C129,270.9,116.7,269.3,104.3,267.8z"/>
		<path id="XMLID_499_" fill="#A5A4A4" d="M903.4,269.5l66.4,6.9c1.2-5.4,2.1-12.1,2.2-19.7c0.1-6-0.4-11.3-1.1-15.9l-85.4,14.4
			L903.4,269.5z"/>
		<path id="XMLID_498_" fill="none" stroke="#282828" stroke-width="0.691" stroke-linejoin="round" d="M903.4,269.5l66.4,6.9
			c1.2-5.4,2.1-12.1,2.2-19.7c0.1-6-0.4-11.3-1.1-15.9l-85.4,14.4L903.4,269.5z"/>
		<path id="XMLID_497_" fill="none" stroke="#303030" stroke-width="0.691" stroke-linejoin="round" d="M104.3,267.8
			c-0.2,0-0.4,0-0.6,0c-10.4,2.3-22.9,6-36.5,12c-12.5,5.5-22.9,11.7-31.4,17.5c-1.6,1.1-0.7,3.7,1.2,3.5c8.4-0.8,17.2-2,26.2-3.5
			c30-5,56.3-12.8,78.7-21.3c1.8-0.7,1.5-3.4-0.5-3.7C129,270.9,116.7,269.3,104.3,267.8z"/>
		<path id="XMLID_496_" fill="none" stroke="#303030" stroke-width="0.691" stroke-linejoin="round" d="M903.4,269.5l66.4,6.9
			c1.2-5.4,2.1-12.1,2.2-19.7c0.1-6-0.4-11.3-1.1-15.9l-85.4,14.4L903.4,269.5z"/>
		<path id="XMLID_495_" fill="#A5A4A4" d="M856.1,381.8c0,38-31.6,68.8-70.5,68.8c-38.9,0-70.5-30.8-70.5-68.8
			c0-38,31.6-68.8,70.5-68.8C824.6,313,856.1,343.8,856.1,381.8"/>
		
			<ellipse id="XMLID_494_" fill="none" stroke="#282828" stroke-width="1.224" stroke-linejoin="round" cx="785.6" cy="381.8" rx="70.5" ry="68.8"/>
		<path id="XMLID_493_" fill="#FFFFFF" d="M839.1,381.8c0,28.8-24,52.2-53.5,52.2c-29.6,0-53.5-23.4-53.5-52.2
			c0-28.9,24-52.2,53.5-52.2C815.2,329.6,839.1,353,839.1,381.8"/>
		<path id="XMLID_492_" fill="none" stroke="#282828" stroke-width="0.691" stroke-linejoin="round" d="M839.1,381.8
			c0,28.8-24,52.2-53.5,52.2c-29.6,0-53.5-23.4-53.5-52.2c0-28.9,24-52.2,53.5-52.2C815.2,329.6,839.1,353,839.1,381.8z"/>
		
			<ellipse id="XMLID_491_" fill="none" stroke="#282828" stroke-width="0.691" stroke-linecap="round" stroke-linejoin="round" cx="785.6" cy="381.4" rx="5.6" ry="5.5"/>
		<path id="XMLID_490_" fill="#DCDBDB" d="M785.6,429.1c1.7,0,3.7,0,6-0.4c0.8-0.1,1.5-0.3,2.2-0.4c0.9-0.2,1.7-0.7,2.2-1.4l2.9-3.7
			c1.1-1.4,1.1-3.5,0-4.9l-10.3-12.9c-1.6-2-4.6-2-6.1,0l-10.3,12.9c-1.1,1.4-1.1,3.4,0,4.9l2.9,3.7c0.6,0.7,1.3,1.2,2.2,1.4
			c0.7,0.2,1.4,0.3,2.2,0.4C781.9,429,783.9,429.1,785.6,429.1"/>
		<path id="XMLID_489_" fill="none" stroke="#282828" stroke-width="0.691" stroke-linejoin="round" d="M785.6,429.1
			c1.7,0,3.7,0,6-0.4c0.8-0.1,1.5-0.3,2.2-0.4c0.9-0.2,1.7-0.7,2.2-1.4l2.9-3.7c1.1-1.4,1.1-3.5,0-4.9l-10.3-12.9
			c-1.6-2-4.6-2-6.1,0l-10.3,12.9c-1.1,1.4-1.1,3.4,0,4.9l2.9,3.7c0.6,0.7,1.3,1.2,2.2,1.4c0.7,0.2,1.4,0.3,2.2,0.4
			C781.9,429,783.9,429.1,785.6,429.1z"/>
		<path id="XMLID_488_" fill="#DCDBDB" d="M830.6,396.3c0.6-1.6,1.1-3.6,1.5-5.8c0.1-0.8,0.2-1.5,0.3-2.2c0.1-0.9-0.2-1.8-0.6-2.5
			l-2.6-3.9c-1-1.5-2.9-2.1-4.6-1.5l-15.4,5.8c-2.4,0.9-3.3,3.7-1.9,5.8l9.1,13.7c1,1.5,2.9,2.1,4.6,1.5l4.4-1.7
			c0.8-0.3,1.5-0.9,2-1.7c0.4-0.6,0.7-1.3,1.1-2C829.4,399.9,830.1,397.9,830.6,396.3"/>
		<path id="XMLID_487_" fill="none" stroke="#282828" stroke-width="0.691" stroke-linejoin="round" d="M830.6,396.3
			c0.6-1.6,1.1-3.6,1.5-5.8c0.1-0.8,0.2-1.5,0.3-2.2c0.1-0.9-0.2-1.8-0.6-2.5l-2.6-3.9c-1-1.5-2.9-2.1-4.6-1.5l-15.4,5.8
			c-2.4,0.9-3.3,3.7-1.9,5.8l9.1,13.7c1,1.5,2.9,2.1,4.6,1.5l4.4-1.7c0.8-0.3,1.5-0.9,2-1.7c0.4-0.6,0.7-1.3,1.1-2
			C829.4,399.9,830.1,397.9,830.6,396.3z"/>
		<path id="XMLID_486_" fill="#DCDBDB" d="M814.2,343.9c-1.3-1.1-3-2.2-5-3.3c-0.7-0.4-1.4-0.7-2-1c-0.8-0.4-1.7-0.4-2.6-0.2
			l-4.6,1.2c-1.8,0.5-3,2.1-2.9,3.9l0.5,16.5c0.1,2.5,2.5,4.3,4.9,3.7l16-4.1c1.8-0.5,3-2.1,2.9-3.9l-0.1-4.7c0-0.9-0.4-1.8-0.9-2.4
			c-0.5-0.5-1-1.1-1.5-1.7C817.2,346.2,815.6,344.9,814.2,343.9"/>
		<path id="XMLID_485_" fill="none" stroke="#282828" stroke-width="0.691" stroke-linejoin="round" d="M814.2,343.9
			c-1.3-1.1-3-2.2-5-3.3c-0.7-0.4-1.4-0.7-2-1c-0.8-0.4-1.7-0.4-2.6-0.2l-4.6,1.2c-1.8,0.5-3,2.1-2.9,3.9l0.5,16.5
			c0.1,2.5,2.5,4.3,4.9,3.7l16-4.1c1.8-0.5,3-2.1,2.9-3.9l-0.1-4.7c0-0.9-0.4-1.8-0.9-2.4c-0.5-0.5-1-1.1-1.5-1.7
			C817.2,346.2,815.6,344.9,814.2,343.9z"/>
		<path id="XMLID_484_" fill="#DCDBDB" d="M757.2,344.1c-1.4,1-3,2.3-4.5,3.9c-0.5,0.6-1,1.1-1.5,1.7c-0.6,0.7-0.9,1.5-0.9,2.4
			l-0.1,4.7c0,1.8,1.2,3.4,2.9,3.9l16,4.1c2.4,0.6,4.8-1.2,4.9-3.7l0.5-16.5c0-1.8-1.2-3.4-2.9-3.9l-4.6-1.2
			c-0.9-0.2-1.8-0.1-2.6,0.2c-0.7,0.3-1.3,0.6-2,1C760.3,341.8,758.6,343,757.2,344.1"/>
		<path id="XMLID_483_" fill="none" stroke="#282828" stroke-width="0.691" stroke-linejoin="round" d="M757.2,344.1
			c-1.4,1-3,2.3-4.5,3.9c-0.5,0.6-1,1.1-1.5,1.7c-0.6,0.7-0.9,1.5-0.9,2.4l-0.1,4.7c0,1.8,1.2,3.4,2.9,3.9l16,4.1
			c2.4,0.6,4.8-1.2,4.9-3.7l0.5-16.5c0-1.8-1.2-3.4-2.9-3.9l-4.6-1.2c-0.9-0.2-1.8-0.1-2.6,0.2c-0.7,0.3-1.3,0.6-2,1
			C760.3,341.9,758.6,343,757.2,344.1z"/>
		<path id="XMLID_482_" fill="#DCDBDB" d="M740.5,396.3c0.5,1.6,1.2,3.6,2.2,5.6c0.4,0.7,0.7,1.4,1.1,2c0.5,0.8,1.2,1.4,2,1.7
			l4.4,1.7c1.7,0.6,3.6,0,4.6-1.5L764,392c1.4-2.1,0.5-4.9-1.9-5.8l-15.4-5.8c-1.7-0.6-3.6,0-4.6,1.5l-2.6,3.9
			c-0.5,0.7-0.7,1.6-0.6,2.5c0.1,0.7,0.1,1.5,0.3,2.2C739.3,392.8,739.9,394.7,740.5,396.3"/>
		<path id="XMLID_481_" fill="none" stroke="#282828" stroke-width="0.691" stroke-linejoin="round" d="M740.5,396.3
			c0.5,1.6,1.2,3.6,2.2,5.6c0.4,0.7,0.7,1.4,1.1,2c0.5,0.8,1.2,1.4,2,1.7l4.4,1.7c1.7,0.6,3.6,0,4.6-1.5L764,392
			c1.4-2.1,0.5-4.9-1.9-5.8l-15.4-5.8c-1.7-0.6-3.6,0-4.6,1.5l-2.6,3.9c-0.5,0.7-0.7,1.6-0.6,2.5c0.1,0.7,0.1,1.5,0.3,2.2
			C739.3,392.8,739.9,394.7,740.5,396.3z"/>
		<path id="XMLID_480_" fill="#A5A4A4" d="M269.4,381.8c0,38-31.6,68.8-70.5,68.8c-38.9,0-70.5-30.8-70.5-68.8
			c0-38,31.6-68.8,70.5-68.8C237.8,313,269.4,343.8,269.4,381.8"/>
		
			<ellipse id="XMLID_479_" fill="none" stroke="#282828" stroke-width="1.224" stroke-linejoin="round" cx="198.9" cy="381.8" rx="70.5" ry="68.8"/>
		<path id="XMLID_478_" fill="#FFFFFF" d="M252.4,381.8c0,28.8-24,52.2-53.5,52.2c-29.6,0-53.5-23.4-53.5-52.2
			c0-28.9,24-52.2,53.5-52.2C228.5,329.6,252.4,353,252.4,381.8"/>
		<path id="XMLID_477_" fill="none" stroke="#282828" stroke-width="0.691" stroke-linejoin="round" d="M252.4,381.8
			c0,28.8-24,52.2-53.5,52.2c-29.6,0-53.5-23.4-53.5-52.2c0-28.9,24-52.2,53.5-52.2C228.5,329.6,252.4,353,252.4,381.8z"/>
		<path id="XMLID_476_" fill="none" stroke="#282828" stroke-width="0.691" stroke-linecap="round" stroke-linejoin="round" d="
			M204.5,381.4c0,3-2.5,5.5-5.6,5.5c-3.1,0-5.6-2.4-5.6-5.5c0-3,2.5-5.5,5.6-5.5C202,375.9,204.5,378.4,204.5,381.4z"/>
		<path id="XMLID_475_" fill="#DCDBDB" d="M198.9,429.1c1.7,0,3.7,0,6-0.4c0.8-0.1,1.5-0.3,2.2-0.4c0.9-0.2,1.7-0.7,2.2-1.4l2.9-3.7
			c1.1-1.4,1.1-3.5,0-4.9L202,405.3c-1.6-2-4.6-2-6.1,0l-10.3,12.9c-1.1,1.4-1.1,3.4,0,4.9l2.9,3.7c0.6,0.7,1.3,1.2,2.2,1.4
			c0.7,0.2,1.4,0.3,2.2,0.4C195.2,429,197.2,429.1,198.9,429.1"/>
		<path id="XMLID_474_" fill="none" stroke="#282828" stroke-width="0.691" stroke-linejoin="round" d="M198.9,429.1
			c1.7,0,3.7,0,6-0.4c0.8-0.1,1.5-0.3,2.2-0.4c0.9-0.2,1.7-0.7,2.2-1.4l2.9-3.7c1.1-1.4,1.1-3.5,0-4.9L202,405.3c-1.6-2-4.6-2-6.1,0
			l-10.3,12.9c-1.1,1.4-1.1,3.4,0,4.9l2.9,3.7c0.6,0.7,1.3,1.2,2.2,1.4c0.7,0.2,1.4,0.3,2.2,0.4C195.2,429,197.2,429.1,198.9,429.1z
			"/>
		<path id="XMLID_473_" fill="#DCDBDB" d="M243.9,396.3c0.6-1.6,1.1-3.6,1.5-5.8c0.1-0.8,0.2-1.5,0.3-2.2c0.1-0.9-0.2-1.8-0.7-2.5
			l-2.6-3.9c-1-1.5-2.9-2.1-4.6-1.5l-15.4,5.8c-2.4,0.9-3.3,3.7-1.9,5.8l9.1,13.7c1,1.5,2.9,2.1,4.6,1.5l4.4-1.7
			c0.8-0.3,1.5-0.9,2-1.7c0.4-0.6,0.7-1.3,1.1-2C242.7,399.9,243.4,397.9,243.9,396.3"/>
		<path id="XMLID_472_" fill="none" stroke="#282828" stroke-width="0.691" stroke-linejoin="round" d="M243.9,396.3
			c0.6-1.6,1.1-3.6,1.5-5.8c0.1-0.8,0.2-1.5,0.3-2.2c0.1-0.9-0.2-1.8-0.7-2.5l-2.6-3.9c-1-1.5-2.9-2.1-4.6-1.5l-15.4,5.8
			c-2.4,0.9-3.3,3.7-1.9,5.8l9.1,13.7c1,1.5,2.9,2.1,4.6,1.5l4.4-1.7c0.8-0.3,1.5-0.9,2-1.7c0.4-0.6,0.7-1.3,1.1-2
			C242.7,399.9,243.4,397.9,243.9,396.3z"/>
		<path id="XMLID_471_" fill="#DCDBDB" d="M227.5,343.9c-1.3-1.1-3-2.2-5-3.3c-0.7-0.4-1.4-0.7-2-1c-0.8-0.4-1.7-0.4-2.6-0.2
			l-4.6,1.2c-1.8,0.5-3,2.1-2.9,3.9l0.5,16.5c0.1,2.5,2.5,4.3,4.9,3.7l16-4.1c1.8-0.5,3-2.1,2.9-3.9l-0.1-4.7c0-0.9-0.4-1.8-0.9-2.4
			c-0.5-0.5-1-1.1-1.5-1.7C230.4,346.2,228.9,344.9,227.5,343.9"/>
		<path id="XMLID_470_" fill="none" stroke="#282828" stroke-width="0.691" stroke-linejoin="round" d="M227.5,343.9
			c-1.3-1.1-3-2.2-5-3.3c-0.7-0.4-1.4-0.7-2-1c-0.8-0.4-1.7-0.4-2.6-0.2l-4.6,1.2c-1.8,0.5-3,2.1-2.9,3.9l0.5,16.5
			c0.1,2.5,2.5,4.3,4.9,3.7l16-4.1c1.8-0.5,3-2.1,2.9-3.9l-0.1-4.7c0-0.9-0.4-1.8-0.9-2.4c-0.5-0.5-1-1.1-1.5-1.7
			C230.4,346.2,228.9,344.9,227.5,343.9z"/>
		<path id="XMLID_469_" fill="#DCDBDB" d="M170.5,344.1c-1.4,1-3,2.3-4.5,3.9c-0.5,0.6-1,1.1-1.5,1.7c-0.6,0.7-0.9,1.5-0.9,2.4
			l-0.1,4.7c0,1.8,1.2,3.4,2.9,3.9l16,4.1c2.4,0.6,4.8-1.2,4.9-3.7l0.5-16.5c0-1.8-1.2-3.4-2.9-3.9l-4.6-1.2
			c-0.9-0.2-1.8-0.1-2.6,0.2c-0.7,0.3-1.3,0.6-2,1C173.5,341.8,171.9,343,170.5,344.1"/>
		<path id="XMLID_468_" fill="none" stroke="#282828" stroke-width="0.691" stroke-linejoin="round" d="M170.5,344.1
			c-1.4,1-3,2.3-4.5,3.9c-0.5,0.6-1,1.1-1.5,1.7c-0.6,0.7-0.9,1.5-0.9,2.4l-0.1,4.7c0,1.8,1.2,3.4,2.9,3.9l16,4.1
			c2.4,0.6,4.8-1.2,4.9-3.7l0.5-16.5c0-1.8-1.2-3.4-2.9-3.9l-4.6-1.2c-0.9-0.2-1.8-0.1-2.6,0.2c-0.7,0.3-1.3,0.6-2,1
			C173.5,341.9,171.9,343,170.5,344.1z"/>
		<path id="XMLID_467_" fill="#DCDBDB" d="M153.7,396.3c0.5,1.6,1.2,3.6,2.2,5.6c0.4,0.7,0.7,1.4,1.1,2c0.5,0.8,1.2,1.4,2,1.7
			l4.4,1.7c1.7,0.6,3.6,0,4.6-1.5l9.1-13.7c1.4-2.1,0.5-4.9-1.9-5.8l-15.4-5.8c-1.7-0.6-3.6,0-4.6,1.5l-2.6,3.9
			c-0.5,0.7-0.7,1.6-0.6,2.5c0.1,0.7,0.1,1.5,0.3,2.2C152.6,392.8,153.2,394.7,153.7,396.3"/>
		<path id="XMLID_466_" fill="none" stroke="#282828" stroke-width="0.691" stroke-linejoin="round" d="M153.7,396.3
			c0.5,1.6,1.2,3.6,2.2,5.6c0.4,0.7,0.7,1.4,1.1,2c0.5,0.8,1.2,1.4,2,1.7l4.4,1.7c1.7,0.6,3.6,0,4.6-1.5l9.1-13.7
			c1.4-2.1,0.5-4.9-1.9-5.8l-15.4-5.8c-1.7-0.6-3.6,0-4.6,1.5l-2.6,3.9c-0.5,0.7-0.7,1.6-0.6,2.5c0.1,0.7,0.1,1.5,0.3,2.2
			C152.6,392.8,153.2,394.7,153.7,396.3z"/>
		<path id="XMLID_465_" fill="none" stroke="#282828" stroke-width="0.691" stroke-linejoin="round" d="M832.3,316.7l26.6-5.8
			c12.8-2.8,24.1-10.5,31.3-21.5l13.2-19.9c8,7.6,21.2,18.4,40.1,26.6c17.4,7.6,33.1,10,43.7,10.9"/>
		<path id="XMLID_464_" fill="none" stroke="#282828" stroke-width="0.691" stroke-linejoin="round" d="M143,273.8
			c128.6-10,264.1-17,406-19.9c116.6-2.3,228.9-1.7,336.6,1.3"/>
		<path id="XMLID_463_" fill="none" stroke="#282828" stroke-width="0.691" stroke-linejoin="round" d="M867.9,377.1
			c18-0.5,33.5-1.3,46.1-2.2c26.6-1.8,34.1-3.3,41.4-7.4c5.6-3.1,6.2-5.1,17.3-13.1c8.2-5.9,15.3-10.3,20.2-13.1"/>
		<path id="XMLID_462_" fill="none" stroke="#282828" stroke-width="0.691" stroke-linejoin="round" d="M45.4,291.2
			c-0.8-2.4-6.7-8-6.7-8"/>
		<path id="XMLID_461_" fill="#DCDBDB" d="M349.3,236.6l11.2,7.5c-4.6,3.7-9.1,7.4-13.7,11.1c-0.3,0.1-3.5,0.6-6-1.6
			c-2.1-1.9-2.2-4.5-2.2-5L349.3,236.6"/>
		<path id="XMLID_460_" fill="none" stroke="#282828" stroke-width="0.691" stroke-linejoin="round" d="M349.3,236.6l11.2,7.5
			c-4.6,3.7-9.1,7.4-13.7,11.1c-0.3,0.1-3.5,0.6-6-1.6c-2.1-1.9-2.2-4.5-2.2-5L349.3,236.6"/>
		<path id="XMLID_459_" fill="#A5A4A4" d="M377.5,220.6c-3-0.5-6.5-0.4-9.5-0.3c-8.2,0.2-17,0.4-20.3,5.6c-2.6,4-0.7,9.1,1.7,12.1
			c4.9,6,15.3,7.9,22.7,5.3C373.5,235.6,375.3,228.1,377.5,220.6"/>
		<path id="XMLID_458_" fill="none" stroke="#282828" stroke-width="0.691" stroke-linejoin="round" d="M377.5,220.6
			c-3-0.5-6.5-0.4-9.5-0.3c-8.2,0.2-17,0.4-20.3,5.6c-2.6,4-0.7,9.1,1.7,12.1c4.9,6,15.3,7.9,22.7,5.3
			C373.5,235.6,375.3,228.1,377.5,220.6z"/>
	</g>
	<g id="PASSENGER">
		<path id="XMLID_457_" fill="#7A7A7B" d="M960.4,1274.6l-84.1,16.4l-703.3-0.8l-40-26.5c1.1-54.2,45.4-97.4,97.3-97.8
			c54.6-0.4,101,46.8,98.7,103.9c129,0.2,257.9,0.5,386.9,0.7c-2.8-57.9,41.5-106.4,94.3-109.7c57.1-3.6,109.8,46.2,107.5,109
			L960.4,1274.6z"/>
		<path id="XMLID_456_" fill="none" stroke="#282828" stroke-width="0.691" stroke-linejoin="round" d="M960.4,1274.6l-84.1,16.4
			l-703.3-0.8l-40-26.5c1.1-54.2,45.4-97.4,97.3-97.8c54.6-0.4,101,46.8,98.7,103.9c129,0.2,257.9,0.5,386.9,0.7
			c-2.8-57.9,41.5-106.4,94.3-109.7c57.1-3.6,109.8,46.2,107.5,109L960.4,1274.6z"/>
		<path id="XMLID_455_" fill="#FFFFFF" d="M21.8,1211.5l4-5.5l-0.5-25.3c0-2.8,0.8-5.5,2.3-7.9l15.2-22.8l66.6-7l17.9-14.3
			l-85.6-14.4c-2-3.8-4-7.7-6-11.5c16.5-3.2,33-6.3,49.6-9.5c3.3,0.4,9.9,1.1,9.9,1.1c25.7-6.7,52-13.9,78.6-21.6
			c29.9-8.6,59-17.5,87.3-26.5l-2.3-9.1c53.8-11.7,122.8-21.1,202.9-18.6c48.6,1.6,92.2,7.2,129.8,14.4c-1.8,2.4-3.7,4.8-5.5,7.1
			c24.3,7.7,51.9,18.2,81.2,32.5c19.1,9.3,36.4,19.1,51.8,28.7c7.5,4.6,15.8,7.5,24.5,8.6c5.3,0.6,10.5,1.4,15.8,1.1l6-2.9l6.8-3.3
			c35.9,0.9,83.9,4,138.6,23c33,11.4,60.6,25.3,82.8,38.4c1.4,5.6,2.7,12.2,3.3,19.7c0.7,8.7-4.1,62.6-4.9,68.6
			c-0.2,1.7-0.5,3.5-0.8,5.1c-1,6.4-6.1,11.4-12.6,12.3c-5.9,0.8-11.9,1.6-17.9,2.3c-20.4,2.5-59.2,5.5-59.2,5.5
			c6.4-42.4-12.9-82.5-46.6-99.8c-2.3-1.2-37-18.3-73-1.6c-35.7,16.5-56.9,58.9-49.9,104.2c-272.4,0.7-422.4,1.1-422.4,1.1
			c0,0,0,0,0,0c0,0,0,0,0,0c0,0,9.4-71.7-42.3-98.7c-36.7-19.2-83.4-4.9-103.3,20.1c-19.5,24.6-22.7,71.5-22.9,72
			c-6.4-0.2-41.9-1.3-68.6-5.1c-5.1-0.7-12.8-1.9-21.6-6.2c-8.7-4.2-14.6-9.5-17.6-12.4c-5.7-5.7-9.5-11.5-11.9-16.2
			c-1.1-2.1-1.6-4.3-1.6-6.6V1218C19.7,1215.7,20.4,1213.4,21.8,1211.5"/>
		<path id="XMLID_454_" fill="none" stroke="#282828" stroke-width="1.224" stroke-linejoin="round" d="M21.8,1211.5l4-5.5
			l-0.5-25.3c0-2.8,0.8-5.5,2.3-7.9l15.2-22.8l66.6-7l17.9-14.3l-85.6-14.4c-2-3.8-4-7.7-6-11.5c16.5-3.2,33-6.3,49.6-9.5
			c3.3,0.4,9.9,1.1,9.9,1.1c25.7-6.7,52-13.9,78.6-21.6c29.9-8.6,59-17.5,87.3-26.5l-2.3-9.1c53.8-11.7,122.8-21.1,202.9-18.6
			c48.6,1.6,92.2,7.2,129.8,14.4c-1.8,2.4-3.7,4.8-5.5,7.1c24.3,7.7,51.9,18.2,81.2,32.5c19.1,9.3,36.4,19.1,51.8,28.7
			c7.5,4.6,15.8,7.5,24.5,8.6c5.3,0.6,10.5,1.4,15.8,1.1l6-2.9l6.8-3.3c35.9,0.9,83.9,4,138.6,23c33,11.4,60.6,25.3,82.8,38.4
			c1.4,5.6,2.7,12.2,3.3,19.7c0.7,8.7-4.1,62.6-4.9,68.6c-0.2,1.7-0.5,3.5-0.8,5.1c-1,6.4-6.1,11.4-12.6,12.3
			c-5.9,0.8-11.9,1.6-17.9,2.3c-20.4,2.5-59.2,5.5-59.2,5.5c6.4-42.4-12.9-82.5-46.6-99.8c-2.3-1.2-37-18.3-73-1.6
			c-35.7,16.5-56.9,58.9-49.9,104.2c-272.4,0.7-422.4,1.1-422.4,1.1c0,0,0,0,0,0c0,0,0,0,0,0c0,0,9.4-71.7-42.3-98.7
			c-36.7-19.2-83.4-4.9-103.3,20.1c-19.5,24.6-22.7,71.5-22.9,72c-6.4-0.2-41.9-1.3-68.6-5.1c-5.1-0.7-12.8-1.9-21.6-6.2
			c-8.7-4.2-14.6-9.5-17.6-12.4c-5.7-5.7-9.5-11.5-11.9-16.2c-1.1-2.1-1.6-4.3-1.6-6.6V1218C19.7,1215.7,20.4,1213.4,21.8,1211.5z"
			/>
		<path id="XMLID_453_" fill="none" stroke="#282828" stroke-width="0.691" stroke-linejoin="round" d="M716,1117.5l-465.5-15.6
			c-8.7-0.3-17.1-3.6-23.7-9.5l-8.2-7.3c-3.6-3.2-2.4-9.1,2.1-10.6c26-8.8,62-19.4,105.4-27.2c58.8-10.6,143.9-25.8,243.5,0.7
			C603.8,1057.1,657.4,1075.8,716,1117.5z"/>
		<path id="XMLID_452_" fill="#A5A4A4" d="M979,1217c-2.3-3.2-3.3-7.5-2.7-11.8c1.2-8.1,3.8-18.6,9.7-28.8c2.3-4.1,4.8-7.5,7.2-10.3
			c1.4,12.1,2.3,26.5,1.6,42.7c-0.3,7.2-0.9,14-1.6,20.5c-2.6-1.4-6.2-3.7-9.9-7.4C981.6,1220.3,980.2,1218.6,979,1217"/>
		<path id="XMLID_451_" fill="none" stroke="#282828" stroke-width="0.691" stroke-linejoin="round" d="M979,1217
			c-2.3-3.2-3.3-7.5-2.7-11.8c1.2-8.1,3.8-18.6,9.7-28.8c2.3-4.1,4.8-7.5,7.2-10.3c1.4,12.1,2.3,26.5,1.6,42.7
			c-0.3,7.2-0.9,14-1.6,20.5c-2.6-1.4-6.2-3.7-9.9-7.4C981.6,1220.3,980.2,1218.6,979,1217z"/>
		<path id="XMLID_450_" fill="#A5A4A4" d="M971.1,1233l-29.6-7c-4.8-1.1-9.7,1.7-11.2,6.5l-2.2,7.4c-1.8,5.9,2.2,11.9,8.2,12.4
			l30.9,2.6c4.3,0.4,8.3-2.3,9.7-6.4c0.3-1,0.7-1.9,1-2.9c0,0,0-0.1,0-0.1C979.7,1240.1,976.5,1234.3,971.1,1233"/>
		<path id="XMLID_449_" fill="none" stroke="#282828" stroke-width="0.691" stroke-linejoin="round" d="M971.1,1233l-29.6-7
			c-4.8-1.1-9.7,1.7-11.2,6.5l-2.2,7.4c-1.8,5.9,2.2,11.9,8.2,12.4l30.9,2.6c4.3,0.4,8.3-2.3,9.7-6.4c0.3-1,0.7-1.9,1-2.9
			c0,0,0-0.1,0-0.1C979.7,1240.1,976.5,1234.3,971.1,1233z"/>
		<path id="XMLID_448_" fill="#FFFFFF" d="M935.5,1238.9c0-5.2,1.8-9.5,4-9.5c2.2,0,4,4.2,4,9.5c0,5.2-1.8,9.5-4,9.5
			C937.3,1248.3,935.5,1244.1,935.5,1238.9"/>
		<path id="XMLID_447_" fill="none" stroke="#282828" stroke-width="0.691" stroke-linejoin="round" d="M935.5,1238.9
			c0-5.2,1.8-9.5,4-9.5c2.2,0,4,4.2,4,9.5c0,5.2-1.8,9.5-4,9.5C937.3,1248.3,935.5,1244.1,935.5,1238.9z"/>
		<path id="XMLID_446_" fill="#A5A4A4" d="M743.3,1110.2c-8.7-1.1-17.1-4-24.5-8.6c-15.5-9.6-32.7-19.3-51.8-28.7
			c-29.3-14.4-56.8-24.8-81.2-32.5c1.8-2.4,3.7-4.8,5.5-7.1c26,8.7,53.6,19.1,82.3,31.3c33.5,14.2,64,29.1,91.6,43.9l-6,2.9
			C753.9,1111.6,748.6,1110.8,743.3,1110.2"/>
		<path id="XMLID_445_" fill="none" stroke="#282828" stroke-width="0.691" stroke-linejoin="round" d="M743.3,1110.2
			c-8.7-1.1-17.1-4-24.5-8.6c-15.5-9.6-32.7-19.3-51.8-28.7c-29.3-14.4-56.8-24.8-81.2-32.5c1.8-2.4,3.7-4.8,5.5-7.1
			c26,8.7,53.6,19.1,82.3,31.3c33.5,14.2,64,29.1,91.6,43.9l-6,2.9C753.9,1111.6,748.6,1110.8,743.3,1110.2z"/>
		<path id="XMLID_444_" fill="#A5A4A4" d="M473.3,1039.8c32.6,1.3,63.8,5.9,94.7,14.2c44.2,11.8,86.7,30.8,126.6,56.5l-201-6.8
			C488,1086.4,478.5,1056.5,473.3,1039.8"/>
		<path id="XMLID_443_" fill="none" stroke="#282828" stroke-width="0.691" stroke-linejoin="round" d="M473.3,1039.8
			c32.6,1.3,63.8,5.9,94.7,14.2c44.2,11.8,86.7,30.8,126.6,56.5l-201-6.8C488,1086.4,478.5,1056.5,473.3,1039.8z"/>
		<path id="XMLID_442_" fill="#A5A4A4" d="M325.9,1053.7c0.5-0.1,0.9-0.2,1.4-0.3c31.7-5.7,70.6-12.6,115.2-13.8l5,62.6l-150.2-5
			L325.9,1053.7z"/>
		<path id="XMLID_441_" fill="none" stroke="#282828" stroke-width="0.691" stroke-linejoin="round" d="M325.9,1053.7
			c0.5-0.1,0.9-0.2,1.4-0.3c31.7-5.7,70.6-12.6,115.2-13.8l5,62.6l-150.2-5L325.9,1053.7z"/>
		<path id="XMLID_440_" fill="#A5A4A4" d="M306.3,1057.5l-29.7,39l-26-0.9c-7.3-0.2-14.3-3-19.7-7.9l-8.2-7.4
			C250,1071.1,278,1063.4,306.3,1057.5"/>
		<path id="XMLID_439_" fill="none" stroke="#282828" stroke-width="0.691" stroke-linejoin="round" d="M306.3,1057.5l-29.7,39
			l-26-0.9c-7.3-0.2-14.3-3-19.7-7.9l-8.2-7.4C250,1071.1,278,1063.4,306.3,1057.5z"/>
		<path id="XMLID_438_" fill="#A5A4A4" d="M173.7,1072.9c-26.7,7.7-52.9,14.9-78.6,21.6c0,0-6.6-0.7-9.9-1.1
			c28.7-11,59.1-21.9,91.4-32.2c28.3-9,55.7-16.9,82-23.9l2.4,9.1C232.7,1055.4,203.6,1064.3,173.7,1072.9"/>
		<path id="XMLID_437_" fill="none" stroke="#282828" stroke-width="0.691" stroke-linejoin="round" d="M173.7,1072.9
			c-26.7,7.7-52.9,14.9-78.6,21.6c0,0-6.6-0.7-9.9-1.1c28.7-11,59.1-21.9,91.4-32.2c28.3-9,55.7-16.9,82-23.9l2.4,9.1
			C232.7,1055.4,203.6,1064.3,173.7,1072.9z"/>
		<path id="XMLID_436_" fill="none" stroke="#282828" stroke-width="0.691" stroke-linejoin="round" d="M910.9,1141.5
			c-30.2-9.2-55.8-14-74.3-16.7c-24.6-3.5-45.1-4.6-70.9-5.9c-20.6-1-37.7-1.4-49.7-1.5"/>
		<path id="XMLID_435_" fill="none" stroke="#282828" stroke-width="0.691" stroke-linejoin="round" d="M920.9,1164.9
			c-14.1,11.3-28.3,22.6-42.4,33.8"/>
		<path id="XMLID_434_" fill="none" stroke="#282828" stroke-width="0.691" stroke-linejoin="round" d="M502.3,1133.7
			c0-2.1,10-3.6,22.2-3.4c12.2,0.2,22.1,2,22,4.1c0,2.1-10,3.6-22.2,3.4C512.1,1137.6,502.3,1135.8,502.3,1133.7z"/>
		
			<ellipse id="XMLID_433_" transform="matrix(-0.9999 -1.655910e-002 1.655910e-002 -0.9999 573.3553 2265.3521)" fill="none" stroke="#282828" stroke-width="0.691" stroke-linejoin="round" cx="296.1" cy="1130.3" rx="22.1" ry="3.7"/>
		<path id="XMLID_432_" fill="none" stroke="#282828" stroke-width="0.691" stroke-linejoin="round" d="M458,1033.3l15.4,76.1
			c2.9,10.1,5.5,20.7,7.7,31.9c9.1,46.3,8.7,88.1,4.9,122.3"/>
		<path id="XMLID_431_" fill="none" stroke="#282828" stroke-width="0.691" stroke-linejoin="round" d="M699.9,1117.5
			c4,11.4,7.7,24.3,10.2,38.8c7.8,44.3,1.6,82.2-5.1,107.3H340c-25.1-36-45.7-64.9-64.7-90.5c-8.3-11.2-21-28-17.2-47.2
			c2.1-10.8,8.8-18.5,13.9-23.3c13.3-17.5,26.7-35,40-52.6"/>
		<path id="XMLID_430_" fill="#A5A4A4" d="M910.3,1141.5c0.2,0,0.4,0,0.7,0c10.4,2.3,23,6,36.6,12c12.5,5.5,23,11.7,31.5,17.5
			c1.6,1.1,0.7,3.7-1.2,3.5c-8.4-0.8-17.2-2-26.2-3.5c-30-5-56.5-12.8-78.9-21.4c-1.9-0.7-1.5-3.4,0.5-3.7
			C885.5,1144.5,897.9,1143,910.3,1141.5"/>
		<path id="XMLID_429_" fill="#A5A4A4" d="M109.3,1143.1l-66.6,6.9c-1.2-5.4-2.1-12.1-2.2-19.7c-0.1-6,0.4-11.3,1.1-15.9l85.6,14.4
			L109.3,1143.1z"/>
		<path id="XMLID_428_" fill="#FFFFFF" d="M910.3,1141.5c0.2,0,0.4,0,0.7,0c10.4,2.3,23,6,36.6,12c12.5,5.5,23,11.7,31.5,17.5
			c1.6,1.1,0.7,3.7-1.2,3.5c-8.4-0.8-17.2-2-26.2-3.5c-30-5-56.5-12.8-78.9-21.4c-1.9-0.7-1.5-3.4,0.5-3.7
			C885.5,1144.5,897.9,1143,910.3,1141.5"/>
		<path id="XMLID_427_" fill="none" stroke="#282828" stroke-width="0.691" stroke-linejoin="round" d="M910.3,1141.5
			c0.2,0,0.4,0,0.7,0c10.4,2.3,23,6,36.6,12c12.5,5.5,23,11.7,31.5,17.5c1.6,1.1,0.7,3.7-1.2,3.5c-8.4-0.8-17.2-2-26.2-3.5
			c-30-5-56.5-12.8-78.9-21.4c-1.9-0.7-1.5-3.4,0.5-3.7C885.5,1144.5,897.9,1143,910.3,1141.5z"/>
		<path id="XMLID_426_" fill="#A5A4A4" d="M109.3,1143.1l-66.6,6.9c-1.2-5.4-2.1-12.1-2.2-19.7c-0.1-6,0.4-11.3,1.1-15.9l85.6,14.4
			L109.3,1143.1z"/>
		<path id="XMLID_425_" fill="none" stroke="#282828" stroke-width="0.691" stroke-linejoin="round" d="M109.3,1143.1l-66.6,6.9
			c-1.2-5.4-2.1-12.1-2.2-19.7c-0.1-6,0.4-11.3,1.1-15.9l85.6,14.4L109.3,1143.1z"/>
		<path id="XMLID_424_" fill="none" stroke="#303030" stroke-width="0.691" stroke-linejoin="round" d="M910.3,1141.5
			c0.2,0,0.4,0,0.7,0c10.4,2.3,23,6,36.6,12c12.5,5.5,23,11.7,31.5,17.5c1.6,1.1,0.7,3.7-1.2,3.5c-8.4-0.8-17.2-2-26.2-3.5
			c-30-5-56.5-12.8-78.9-21.4c-1.9-0.7-1.5-3.4,0.5-3.7C885.5,1144.5,897.9,1143,910.3,1141.5z"/>
		<path id="XMLID_423_" fill="none" stroke="#303030" stroke-width="0.691" stroke-linejoin="round" d="M109.3,1143.1l-66.6,6.9
			c-1.2-5.4-2.1-12.1-2.2-19.7c-0.1-6,0.4-11.3,1.1-15.9l85.6,14.4L109.3,1143.1z"/>
		<path id="XMLID_422_" fill="#A5A4A4" d="M156.7,1255.8c0,38.1,31.6,69,70.7,69c39,0,70.7-30.9,70.7-69c0-38.1-31.6-69-70.7-69
			C188.3,1186.8,156.7,1217.7,156.7,1255.8"/>
		
			<ellipse id="XMLID_421_" fill="none" stroke="#282828" stroke-width="1.224" stroke-linejoin="round" cx="227.4" cy="1255.8" rx="70.7" ry="69"/>
		<path id="XMLID_420_" fill="#FFFFFF" d="M173.7,1255.8c0,28.9,24,52.4,53.6,52.4c29.6,0,53.6-23.4,53.6-52.4
			c0-28.9-24-52.4-53.6-52.4C197.7,1203.4,173.7,1226.8,173.7,1255.8"/>
		<path id="XMLID_419_" fill="none" stroke="#282828" stroke-width="0.691" stroke-linejoin="round" d="M173.7,1255.8
			c0,28.9,24,52.4,53.6,52.4c29.6,0,53.6-23.4,53.6-52.4s-24-52.4-53.6-52.4C197.7,1203.4,173.7,1226.8,173.7,1255.8z"/>
		<path id="XMLID_418_" fill="none" stroke="#282828" stroke-width="0.691" stroke-linecap="round" stroke-linejoin="round" d="
			M221.8,1255.3c0,3,2.5,5.5,5.6,5.5c3.1,0,5.6-2.5,5.6-5.5c0-3-2.5-5.5-5.6-5.5C224.3,1249.8,221.8,1252.3,221.8,1255.3z"/>
		<path id="XMLID_417_" fill="#DCDBDB" d="M227.4,1303.1c-1.7,0-3.8,0-6-0.4c-0.8-0.1-1.5-0.3-2.2-0.4c-0.9-0.2-1.7-0.7-2.2-1.4
			l-2.9-3.7c-1.1-1.4-1.1-3.5,0-4.9l10.3-12.9c1.6-2,4.6-2,6.2,0l10.3,12.9c1.1,1.4,1.1,3.5,0,4.9l-2.9,3.7
			c-0.6,0.7-1.3,1.2-2.2,1.4c-0.7,0.2-1.4,0.3-2.2,0.4C231.1,1303,229.1,1303.1,227.4,1303.1"/>
		<path id="XMLID_416_" fill="none" stroke="#282828" stroke-width="0.691" stroke-linejoin="round" d="M227.4,1303.1
			c-1.7,0-3.8,0-6-0.4c-0.8-0.1-1.5-0.3-2.2-0.4c-0.9-0.2-1.7-0.7-2.2-1.4l-2.9-3.7c-1.1-1.4-1.1-3.5,0-4.9l10.3-12.9
			c1.6-2,4.6-2,6.2,0l10.3,12.9c1.1,1.4,1.1,3.5,0,4.9l-2.9,3.7c-0.6,0.7-1.3,1.2-2.2,1.4c-0.7,0.2-1.4,0.3-2.2,0.4
			C231.1,1303,229.1,1303.1,227.4,1303.1z"/>
		<path id="XMLID_415_" fill="#DCDBDB" d="M182.3,1270.2c-0.6-1.6-1.1-3.6-1.5-5.8c-0.1-0.8-0.2-1.5-0.3-2.2
			c-0.1-0.9,0.2-1.8,0.7-2.5l2.6-3.9c1-1.5,2.9-2.1,4.7-1.5l15.5,5.8c2.4,0.9,3.3,3.7,1.9,5.8l-9.1,13.8c-1,1.5-2.9,2.1-4.7,1.5
			l-4.4-1.7c-0.8-0.3-1.5-0.9-2-1.7c-0.4-0.6-0.7-1.3-1.1-2C183.5,1273.8,182.8,1271.9,182.3,1270.2"/>
		<path id="XMLID_414_" fill="none" stroke="#282828" stroke-width="0.691" stroke-linejoin="round" d="M182.3,1270.2
			c-0.6-1.6-1.1-3.6-1.5-5.8c-0.1-0.8-0.2-1.5-0.3-2.2c-0.1-0.9,0.2-1.8,0.7-2.5l2.6-3.9c1-1.5,2.9-2.1,4.7-1.5l15.5,5.8
			c2.4,0.9,3.3,3.7,1.9,5.8l-9.1,13.8c-1,1.5-2.9,2.1-4.7,1.5l-4.4-1.7c-0.8-0.3-1.5-0.9-2-1.7c-0.4-0.6-0.7-1.3-1.1-2
			C183.5,1273.8,182.8,1271.9,182.3,1270.2z"/>
		<path id="XMLID_413_" fill="#DCDBDB" d="M198.7,1217.7c1.3-1.1,3-2.2,5-3.3c0.7-0.4,1.4-0.7,2-1c0.8-0.4,1.7-0.4,2.6-0.2l4.6,1.2
			c1.8,0.5,3,2.1,2.9,3.9l-0.5,16.5c-0.1,2.5-2.5,4.3-4.9,3.7l-16-4.2c-1.8-0.5-3-2.1-2.9-3.9l0.1-4.7c0-0.9,0.4-1.8,0.9-2.4
			c0.5-0.5,1-1.1,1.5-1.7C195.8,1220,197.3,1218.7,198.7,1217.7"/>
		<path id="XMLID_412_" fill="none" stroke="#282828" stroke-width="0.691" stroke-linejoin="round" d="M198.7,1217.7
			c1.3-1.1,3-2.2,5-3.3c0.7-0.4,1.4-0.7,2-1c0.8-0.4,1.7-0.4,2.6-0.2l4.6,1.2c1.8,0.5,3,2.1,2.9,3.9l-0.5,16.5
			c-0.1,2.5-2.5,4.3-4.9,3.7l-16-4.2c-1.8-0.5-3-2.1-2.9-3.9l0.1-4.7c0-0.9,0.4-1.8,0.9-2.4c0.5-0.5,1-1.1,1.5-1.7
			C195.8,1220,197.3,1218.7,198.7,1217.7z"/>
		<path id="XMLID_411_" fill="#DCDBDB" d="M255.8,1217.9c1.4,1,3,2.3,4.6,3.9c0.5,0.6,1,1.1,1.5,1.7c0.6,0.7,0.9,1.5,0.9,2.4
			l0.1,4.7c0,1.8-1.2,3.4-2.9,3.9l-16,4.1c-2.4,0.6-4.8-1.2-4.9-3.7l-0.5-16.5c0-1.8,1.2-3.4,2.9-3.9l4.6-1.2
			c0.9-0.2,1.8-0.1,2.6,0.2c0.7,0.3,1.3,0.6,2,1C252.8,1215.7,254.5,1216.8,255.8,1217.9"/>
		<path id="XMLID_410_" fill="none" stroke="#282828" stroke-width="0.691" stroke-linejoin="round" d="M255.8,1217.9
			c1.4,1,3,2.3,4.6,3.9c0.5,0.6,1,1.1,1.5,1.7c0.6,0.7,0.9,1.5,0.9,2.4l0.1,4.7c0,1.8-1.2,3.4-2.9,3.9l-16,4.1
			c-2.4,0.6-4.8-1.2-4.9-3.7l-0.5-16.5c0-1.8,1.2-3.4,2.9-3.9l4.6-1.2c0.9-0.2,1.8-0.1,2.6,0.2c0.7,0.3,1.3,0.6,2,1
			C252.8,1215.7,254.5,1216.8,255.8,1217.9z"/>
		<path id="XMLID_409_" fill="#DCDBDB" d="M272.6,1270.3c-0.5,1.7-1.2,3.6-2.2,5.6c-0.4,0.7-0.7,1.4-1.1,2c-0.5,0.8-1.2,1.4-2,1.7
			l-4.4,1.7c-1.7,0.6-3.6,0-4.6-1.5l-9.1-13.8c-1.4-2.1-0.5-5,1.9-5.9l15.5-5.8c1.7-0.6,3.6,0,4.7,1.5l2.6,3.9
			c0.5,0.7,0.7,1.6,0.7,2.5c-0.1,0.7-0.1,1.5-0.3,2.2C273.8,1266.7,273.2,1268.7,272.6,1270.3"/>
		<path id="XMLID_408_" fill="none" stroke="#282828" stroke-width="0.691" stroke-linejoin="round" d="M272.6,1270.3
			c-0.5,1.7-1.2,3.6-2.2,5.6c-0.4,0.7-0.7,1.4-1.1,2c-0.5,0.8-1.2,1.4-2,1.7l-4.4,1.7c-1.7,0.6-3.6,0-4.6-1.5l-9.1-13.8
			c-1.4-2.1-0.5-5,1.9-5.9l15.5-5.8c1.7-0.6,3.6,0,4.7,1.5l2.6,3.9c0.5,0.7,0.7,1.6,0.7,2.5c-0.1,0.7-0.1,1.5-0.3,2.2
			C273.8,1266.7,273.2,1268.7,272.6,1270.3z"/>
		<path id="XMLID_407_" fill="#A5A4A4" d="M744.8,1255.8c0,38.1,31.6,69,70.7,69c39,0,70.7-30.9,70.7-69c0-38.1-31.6-69-70.7-69
			C776.4,1186.8,744.8,1217.7,744.8,1255.8"/>
		
			<ellipse id="XMLID_406_" fill="none" stroke="#282828" stroke-width="1.224" stroke-linejoin="round" cx="815.5" cy="1255.8" rx="70.7" ry="69"/>
		<path id="XMLID_405_" fill="#FFFFFF" d="M761.8,1255.8c0,28.9,24,52.4,53.6,52.4c29.6,0,53.6-23.4,53.6-52.4
			c0-28.9-24-52.4-53.6-52.4C785.8,1203.4,761.8,1226.8,761.8,1255.8"/>
		<path id="XMLID_404_" fill="none" stroke="#282828" stroke-width="0.691" stroke-linejoin="round" d="M761.8,1255.8
			c0,28.9,24,52.4,53.6,52.4c29.6,0,53.6-23.4,53.6-52.4s-24-52.4-53.6-52.4C785.8,1203.4,761.8,1226.8,761.8,1255.8z"/>
		
			<ellipse id="XMLID_403_" fill="none" stroke="#282828" stroke-width="0.691" stroke-linecap="round" stroke-linejoin="round" cx="815.5" cy="1255.3" rx="5.6" ry="5.5"/>
		<path id="XMLID_402_" fill="#DCDBDB" d="M815.5,1303.1c-1.7,0-3.8,0-6-0.4c-0.8-0.1-1.5-0.3-2.2-0.4c-0.9-0.2-1.7-0.7-2.2-1.4
			l-2.9-3.7c-1.1-1.4-1.1-3.5,0-4.9l10.3-12.9c1.6-2,4.6-2,6.1,0l10.3,12.9c1.1,1.4,1.1,3.5,0,4.9l-2.9,3.7
			c-0.6,0.7-1.3,1.2-2.2,1.4c-0.7,0.2-1.4,0.3-2.2,0.4C819.2,1303,817.2,1303.1,815.5,1303.1"/>
		<path id="XMLID_401_" fill="none" stroke="#282828" stroke-width="0.691" stroke-linejoin="round" d="M815.5,1303.1
			c-1.7,0-3.8,0-6-0.4c-0.8-0.1-1.5-0.3-2.2-0.4c-0.9-0.2-1.7-0.7-2.2-1.4l-2.9-3.7c-1.1-1.4-1.1-3.5,0-4.9l10.3-12.9
			c1.6-2,4.6-2,6.1,0l10.3,12.9c1.1,1.4,1.1,3.5,0,4.9l-2.9,3.7c-0.6,0.7-1.3,1.2-2.2,1.4c-0.7,0.2-1.4,0.3-2.2,0.4
			C819.2,1303,817.2,1303.1,815.5,1303.1z"/>
		<path id="XMLID_400_" fill="#DCDBDB" d="M770.4,1270.2c-0.6-1.6-1.1-3.6-1.5-5.8c-0.1-0.8-0.2-1.5-0.3-2.2
			c-0.1-0.9,0.2-1.8,0.7-2.5l2.6-3.9c1-1.5,2.9-2.1,4.7-1.5l15.5,5.8c2.4,0.9,3.3,3.7,1.9,5.8l-9.1,13.8c-1,1.5-2.9,2.1-4.7,1.5
			l-4.4-1.7c-0.8-0.3-1.5-0.9-2-1.7c-0.4-0.6-0.7-1.3-1.1-2C771.6,1273.8,770.9,1271.9,770.4,1270.2"/>
		<path id="XMLID_399_" fill="none" stroke="#282828" stroke-width="0.691" stroke-linejoin="round" d="M770.4,1270.2
			c-0.6-1.6-1.1-3.6-1.5-5.8c-0.1-0.8-0.2-1.5-0.3-2.2c-0.1-0.9,0.2-1.8,0.7-2.5l2.6-3.9c1-1.5,2.9-2.1,4.7-1.5l15.5,5.8
			c2.4,0.9,3.3,3.7,1.9,5.8l-9.1,13.8c-1,1.5-2.9,2.1-4.7,1.5l-4.4-1.7c-0.8-0.3-1.5-0.9-2-1.7c-0.4-0.6-0.7-1.3-1.1-2
			C771.6,1273.8,770.9,1271.9,770.4,1270.2z"/>
		<path id="XMLID_398_" fill="#DCDBDB" d="M786.8,1217.7c1.3-1.1,3-2.2,5-3.3c0.7-0.4,1.4-0.7,2-1c0.8-0.4,1.7-0.4,2.6-0.2l4.6,1.2
			c1.8,0.5,3,2.1,2.9,3.9l-0.5,16.5c-0.1,2.5-2.5,4.3-4.9,3.7l-16-4.2c-1.8-0.5-3-2.1-2.9-3.9l0.1-4.7c0-0.9,0.4-1.8,0.9-2.4
			c0.5-0.5,1-1.1,1.5-1.7C783.8,1220,785.4,1218.7,786.8,1217.7"/>
		<path id="XMLID_397_" fill="none" stroke="#282828" stroke-width="0.691" stroke-linejoin="round" d="M786.8,1217.7
			c1.3-1.1,3-2.2,5-3.3c0.7-0.4,1.4-0.7,2-1c0.8-0.4,1.7-0.4,2.6-0.2l4.6,1.2c1.8,0.5,3,2.1,2.9,3.9l-0.5,16.5
			c-0.1,2.5-2.5,4.3-4.9,3.7l-16-4.2c-1.8-0.5-3-2.1-2.9-3.9l0.1-4.7c0-0.9,0.4-1.8,0.9-2.4c0.5-0.5,1-1.1,1.5-1.7
			C783.8,1220,785.4,1218.7,786.8,1217.7z"/>
		<path id="XMLID_396_" fill="#DCDBDB" d="M843.9,1217.9c1.4,1,3,2.3,4.6,3.9c0.5,0.6,1,1.1,1.5,1.7c0.6,0.7,0.9,1.5,0.9,2.4
			l0.1,4.7c0,1.8-1.2,3.4-2.9,3.9l-16,4.1c-2.4,0.6-4.8-1.2-4.9-3.7l-0.5-16.5c0-1.8,1.2-3.4,2.9-3.9l4.6-1.2
			c0.9-0.2,1.8-0.1,2.6,0.2c0.7,0.3,1.3,0.6,2,1C840.9,1215.7,842.6,1216.8,843.9,1217.9"/>
		<path id="XMLID_395_" fill="none" stroke="#282828" stroke-width="0.691" stroke-linejoin="round" d="M843.9,1217.9
			c1.4,1,3,2.3,4.6,3.9c0.5,0.6,1,1.1,1.5,1.7c0.6,0.7,0.9,1.5,0.9,2.4l0.1,4.7c0,1.8-1.2,3.4-2.9,3.9l-16,4.1
			c-2.4,0.6-4.8-1.2-4.9-3.7l-0.5-16.5c0-1.8,1.2-3.4,2.9-3.9l4.6-1.2c0.9-0.2,1.8-0.1,2.6,0.2c0.7,0.3,1.3,0.6,2,1
			C840.9,1215.7,842.6,1216.8,843.9,1217.9z"/>
		<path id="XMLID_394_" fill="#DCDBDB" d="M860.7,1270.3c-0.5,1.7-1.2,3.6-2.2,5.6c-0.4,0.7-0.7,1.4-1.1,2c-0.5,0.8-1.2,1.4-2,1.7
			l-4.4,1.7c-1.7,0.6-3.6,0-4.6-1.5l-9.1-13.8c-1.4-2.1-0.5-5,1.9-5.9l15.5-5.8c1.7-0.6,3.6,0,4.7,1.5l2.6,3.9
			c0.5,0.7,0.7,1.6,0.7,2.5c-0.1,0.7-0.1,1.5-0.3,2.2C861.9,1266.7,861.3,1268.7,860.7,1270.3"/>
		<path id="XMLID_393_" fill="none" stroke="#282828" stroke-width="0.691" stroke-linejoin="round" d="M860.7,1270.3
			c-0.5,1.7-1.2,3.6-2.2,5.6c-0.4,0.7-0.7,1.4-1.1,2c-0.5,0.8-1.2,1.4-2,1.7l-4.4,1.7c-1.7,0.6-3.6,0-4.6-1.5l-9.1-13.8
			c-1.4-2.1-0.5-5,1.9-5.9l15.5-5.8c1.7-0.6,3.6,0,4.7,1.5l2.6,3.9c0.5,0.7,0.7,1.6,0.7,2.5c-0.1,0.7-0.1,1.5-0.3,2.2
			C861.9,1266.7,861.3,1268.7,860.7,1270.3z"/>
		<path id="XMLID_392_" fill="none" stroke="#282828" stroke-width="0.691" stroke-linejoin="round" d="M180.6,1190.5l-26.7-5.8
			c-12.9-2.8-24.1-10.5-31.4-21.5l-13.2-20c-8,7.6-21.3,18.5-40.2,26.7c-17.5,7.6-33.2,10-43.8,10.9"/>
		<path id="XMLID_391_" fill="none" stroke="#282828" stroke-width="0.691" stroke-linejoin="round" d="M871.5,1147.5
			c-128.9-10.1-264.7-17.1-406.9-19.9c-116.8-2.4-229.4-1.7-337.3,1.3"/>
		<path id="XMLID_390_" fill="none" stroke="#282828" stroke-width="0.691" stroke-linejoin="round" d="M144.9,1251
			c-18-0.5-33.6-1.3-46.2-2.2c-26.7-1.8-34.2-3.3-41.5-7.4c-5.6-3.1-6.2-5.1-17.3-13.1c-8.2-5.9-15.4-10.3-20.2-13.1"/>
		<path id="XMLID_389_" fill="none" stroke="#282828" stroke-width="0.691" stroke-linejoin="round" d="M969.4,1164.9
			c0.8-2.4,6.7-8,6.7-8"/>
		<path id="XMLID_388_" fill="#DCDBDB" d="M664.7,1110.2l-11.2,7.6c4.6,3.7,9.1,7.4,13.7,11.1c0.3,0.1,3.5,0.7,6-1.6
			c2.1-1.9,2.2-4.5,2.2-5L664.7,1110.2"/>
		<path id="XMLID_387_" fill="none" stroke="#282828" stroke-width="0.691" stroke-linejoin="round" d="M664.7,1110.2l-11.2,7.6
			c4.6,3.7,9.1,7.4,13.7,11.1c0.3,0.1,3.5,0.7,6-1.6c2.1-1.9,2.2-4.5,2.2-5L664.7,1110.2"/>
		<path id="XMLID_386_" fill="#A5A4A4" d="M636.5,1094.1c3-0.5,6.5-0.4,9.6-0.3c8.2,0.2,17,0.4,20.4,5.6c2.6,4,0.7,9.1-1.7,12.1
			c-4.9,6.1-15.4,8-22.8,5.3C640.4,1109.2,638.6,1101.6,636.5,1094.1"/>
		<path id="XMLID_385_" fill="none" stroke="#282828" stroke-width="0.691" stroke-linejoin="round" d="M636.5,1094.1
			c3-0.5,6.5-0.4,9.6-0.3c8.2,0.2,17,0.4,20.4,5.6c2.6,4,0.7,9.1-1.7,12.1c-4.9,6.1-15.4,8-22.8,5.3
			C640.4,1109.2,638.6,1101.6,636.5,1094.1z"/>
	</g>
	<g id="FRONT">
		<rect id="XMLID_384_" x="1102.8" y="1255.4" fill="#7A7A7B" width="301.3" height="28.2"/>
		
			<rect id="XMLID_383_" x="1102.8" y="1255.4" fill="none" stroke="#282828" stroke-width="0.691" stroke-linejoin="round" width="301.3" height="28.2"/>
		<rect id="XMLID_382_" x="1163.3" y="1259.7" fill="#7A7A7B" width="180.2" height="28.1"/>
		
			<rect id="XMLID_381_" x="1163.3" y="1259.7" fill="none" stroke="#282828" stroke-width="0.691" stroke-linejoin="round" width="180.2" height="28.1"/>
		<path id="XMLID_380_" fill="#A5A4A4" d="M1062,1191v2.4v119.6c0,6.8,5.5,12.2,12.2,12.2h29.5c6.8,0,12.2-5.5,12.2-12.2v-42.7
			L1062,1191z"/>
		<path id="XMLID_379_" fill="none" stroke="#282828" stroke-width="1.224" stroke-linejoin="round" d="M1062,1191v2.4v119.6
			c0,6.8,5.5,12.2,12.2,12.2h29.5c6.8,0,12.2-5.5,12.2-12.2v-42.7L1062,1191z"/>
		<path id="XMLID_378_" fill="#A5A4A4" d="M1444.8,1191v2.4v119.6c0,6.8-5.5,12.2-12.2,12.2H1403c-6.8,0-12.2-5.5-12.2-12.2v-42.7
			L1444.8,1191z"/>
		<path id="XMLID_377_" fill="none" stroke="#282828" stroke-width="1.224" stroke-linejoin="round" d="M1444.8,1191v2.4v119.6
			c0,6.8-5.5,12.2-12.2,12.2H1403c-6.8,0-12.2-5.5-12.2-12.2v-42.7L1444.8,1191z"/>
		<path id="XMLID_376_" fill="#FFFFFF" d="M1253.4,1270.4h173.5c4.9,0,9.2-3.5,10.1-8.3c2.7-13.5,4.1-24.7,4.9-32.7
			c1.3-13.4,1.2-20.7,2.9-38.3c1.2-13.4,2.7-24.2,3.7-31.1c-1.6-4-3.6-8.4-6.2-13c-1.8-3.1-3.6-5.9-5.3-8.4c-0.9-3.6-2.6-8.6-6-13.9
			c-2.8-4.3-5.8-7.5-8.2-9.7c-4.3-15.3-11.2-34.2-22.5-54.4c-5-8.9-10.2-16.8-15.3-23.9c-5.6-7.7-14.2-12.6-23.6-13.4
			c-6.1-0.6-12.4-1.1-18.7-1.5c-31.2-2.3-60.9-3-89.2-3c-28.3,0-58.1,0.7-89.2,3c-6.3,0.5-12.5,1-18.7,1.5
			c-9.4,0.9-18,5.7-23.6,13.4c-5.1,7-10.3,15-15.3,23.9c-11.4,20.2-18.2,39.1-22.5,54.4c-2.4,2.2-5.5,5.4-8.2,9.7
			c-3.4,5.3-5.1,10.4-6,13.9c-1.8,2.5-3.6,5.3-5.3,8.4c-2.6,4.6-4.6,9-6.2,13c1,7,2.5,17.8,3.7,31.1c1.6,17.6,1.5,24.9,2.9,38.3
			c0.8,8.1,2.2,19.2,4.9,32.7c1,4.8,5.2,8.3,10.1,8.3H1253.4z"/>
		<path id="XMLID_375_" fill="none" stroke="#282828" stroke-width="1.224" stroke-linejoin="round" d="M1253.4,1270.4h173.5
			c4.9,0,9.2-3.5,10.1-8.3c2.7-13.5,4.1-24.7,4.9-32.7c1.3-13.4,1.2-20.7,2.9-38.3c1.2-13.4,2.7-24.2,3.7-31.1
			c-1.6-4-3.6-8.4-6.2-13c-1.8-3.1-3.6-5.9-5.3-8.4c-0.9-3.6-2.6-8.6-6-13.9c-2.8-4.3-5.8-7.5-8.2-9.7
			c-4.3-15.3-11.2-34.2-22.5-54.4c-5-8.9-10.2-16.8-15.3-23.9c-5.6-7.7-14.2-12.6-23.6-13.4c-6.1-0.6-12.4-1.1-18.7-1.5
			c-31.2-2.3-60.9-3-89.2-3c-28.3,0-58.1,0.7-89.2,3c-6.3,0.5-12.5,1-18.7,1.5c-9.4,0.9-18,5.7-23.6,13.4c-5.1,7-10.3,15-15.3,23.9
			c-11.4,20.2-18.2,39.1-22.5,54.4c-2.4,2.2-5.5,5.4-8.2,9.7c-3.4,5.3-5.1,10.4-6,13.9c-1.8,2.5-3.6,5.3-5.3,8.4
			c-2.6,4.6-4.6,9-6.2,13c1,7,2.5,17.8,3.7,31.1c1.6,17.6,1.5,24.9,2.9,38.3c0.8,8.1,2.2,19.2,4.9,32.7c1,4.8,5.2,8.3,10.1,8.3
			H1253.4z"/>
		<path id="XMLID_374_" fill="#A5A4A4" d="M1130,1245.6l-0.2,0.4c-1.6,2.7-4.4,4.5-7.6,4.6l-38.3,1.4c-6.5,0.2-11.1-6.1-9-12.2
			l3-8.5c1.5-4.3,5.9-6.8,10.3-6l35.6,6.7C1129.9,1233.2,1133.1,1240.1,1130,1245.6"/>
		<path id="XMLID_373_" fill="none" stroke="#282828" stroke-width="0.691" stroke-linejoin="round" d="M1130,1245.6l-0.2,0.4
			c-1.6,2.7-4.4,4.5-7.6,4.6l-38.3,1.4c-6.5,0.2-11.1-6.1-9-12.2l3-8.5c1.5-4.3,5.9-6.8,10.3-6l35.6,6.7
			C1129.9,1233.2,1133.1,1240.1,1130,1245.6z"/>
		<path id="XMLID_372_" fill="#A5A4A4" d="M1253.7,1215.2c25,0.5,54.6-1.3,86.8-8.5c4.3-1,8.6-2,12.7-3.1c5.4-1.4,7.6-7,4.3-11
			c-2.6-3.1-5.6-6.4-9.3-9.7c-0.1-0.1-0.2-0.1-0.3-0.2c-11-9.7-26-15.3-41.7-15.7c-1.2,0-2.3-0.1-3.5-0.1c-16.9-0.4-33.3,0-49,0
			c-15.8,0-32.1-0.4-49,0c-1.2,0-2.3,0.1-3.5,0.1c-15.7,0.4-30.6,5.9-41.7,15.7c-0.1,0.1-0.2,0.1-0.3,0.2c-3.7,3.3-6.8,6.6-9.3,9.7
			c-3.3,4-1.1,9.6,4.3,11c4.1,1.1,8.3,2.1,12.7,3.1C1199.1,1213.9,1228.7,1215.7,1253.7,1215.2"/>
		<path id="XMLID_371_" fill="none" stroke="#282828" stroke-width="0.691" stroke-linejoin="round" d="M1253.7,1215.2
			c25,0.5,54.6-1.3,86.8-8.5c4.3-1,8.6-2,12.7-3.1c5.4-1.4,7.6-7,4.3-11c-2.6-3.1-5.6-6.4-9.3-9.7c-0.1-0.1-0.2-0.1-0.3-0.2
			c-11-9.7-26-15.3-41.7-15.7c-1.2,0-2.3-0.1-3.5-0.1c-16.9-0.4-33.3,0-49,0s-32.1-0.4-49,0c-1.2,0-2.3,0.1-3.5,0.1
			c-15.7,0.4-30.6,5.9-41.7,15.7c-0.1,0.1-0.2,0.1-0.3,0.2c-3.7,3.3-6.8,6.6-9.3,9.7c-3.3,4-1.1,9.6,4.3,11
			c4.1,1.1,8.3,2.1,12.7,3.1C1199.1,1213.9,1228.7,1215.7,1253.7,1215.2z"/>
		<path id="XMLID_370_" fill="#A5A4A4" d="M1253.4,1252.8c29.8,0,59.7-0.7,89.5-2c3.2-0.1,5.2-3.7,3.5-6.4c-1.3-2.1-2.6-4.2-3.9-6.3
			c-0.7-1.2-2.1-1.9-3.5-1.9c-28.5,1.3-57.1,1.9-85.6,1.9c-28.6,0-57.1-0.7-85.6-1.9c-1.5-0.1-2.8,0.6-3.5,1.9
			c-1.3,2.1-2.6,4.2-3.9,6.3c-1.6,2.7,0.3,6.2,3.5,6.4C1193.7,1252.1,1223.6,1252.8,1253.4,1252.8"/>
		<path id="XMLID_369_" fill="none" stroke="#282828" stroke-width="0.691" stroke-linejoin="round" d="M1253.4,1252.8
			c29.8,0,59.7-0.7,89.5-2c3.2-0.1,5.2-3.7,3.5-6.4c-1.3-2.1-2.6-4.2-3.9-6.3c-0.7-1.2-2.1-1.9-3.5-1.9c-28.5,1.3-57.1,1.9-85.6,1.9
			c-28.6,0-57.1-0.7-85.6-1.9c-1.5-0.1-2.8,0.6-3.5,1.9c-1.3,2.1-2.6,4.2-3.9,6.3c-1.6,2.7,0.3,6.2,3.5,6.4
			C1193.7,1252.1,1223.6,1252.8,1253.4,1252.8z"/>
		<path id="XMLID_368_" fill="none" stroke="#282828" stroke-width="0.691" stroke-linejoin="round" d="M1253.4,1252.8
			c29.8,0,59.7-0.7,89.5-2c3.2-0.1,5.2-3.7,3.5-6.4c-1.3-2.1-2.6-4.2-3.9-6.3c-0.7-1.2-2.1-1.9-3.5-1.9c-28.5,1.3-57.1,1.9-85.6,1.9
			c-28.6,0-57.1-0.7-85.6-1.9c-1.5-0.1-2.8,0.6-3.5,1.9c-1.3,2.1-2.6,4.2-3.9,6.3c-1.6,2.7,0.3,6.2,3.5,6.4
			C1193.7,1252.1,1223.6,1252.8,1253.4,1252.8z"/>
		<path id="XMLID_367_" fill="#A5A4A4" d="M1376.8,1245.6l0.2,0.4c1.6,2.7,4.4,4.5,7.6,4.6l38.3,1.4c6.5,0.2,11.1-6.1,9-12.2l-3-8.5
			c-1.5-4.3-5.9-6.8-10.3-6l-35.6,6.7C1376.9,1233.2,1373.7,1240.1,1376.8,1245.6"/>
		<path id="XMLID_366_" fill="none" stroke="#282828" stroke-width="0.691" stroke-linejoin="round" d="M1376.8,1245.6l0.2,0.4
			c1.6,2.7,4.4,4.5,7.6,4.6l38.3,1.4c6.5,0.2,11.1-6.1,9-12.2l-3-8.5c-1.5-4.3-5.9-6.8-10.3-6l-35.6,6.7
			C1376.9,1233.2,1373.7,1240.1,1376.8,1245.6z"/>
		<line id="XMLID_365_" fill="#DCDBDB" x1="1076.7" y1="1154.6" x2="1060.2" y2="1174"/>
		
			<line id="XMLID_364_" fill="none" stroke="#282828" stroke-width="0.691" stroke-linejoin="round" x1="1076.7" y1="1154.6" x2="1060.2" y2="1174"/>
		<line id="XMLID_363_" fill="#DCDBDB" x1="1074.3" y1="1143.6" x2="1069.9" y2="1138.5"/>
		
			<line id="XMLID_362_" fill="none" stroke="#282828" stroke-width="0.691" stroke-linejoin="round" x1="1074.3" y1="1143.6" x2="1069.9" y2="1138.5"/>
		<path id="XMLID_361_" fill="none" stroke="#282828" stroke-width="0.691" stroke-linejoin="round" d="M1084.1,1114.8
			c0.4,4.2,1.6,10,5.2,15.9c3.8,6.1,8.7,9.7,12.2,12.3c2.8,2,5.2,3.5,7.1,4.4"/>
		<path id="XMLID_360_" fill="none" stroke="#282828" stroke-width="0.691" stroke-linejoin="round" d="M1088,1100
			c1.5,1.9,4,4.8,7.3,8.1c13.9,13.7,25.5,17.1,38.1,25.6c6.5,4.4,15.6,11.9,24.6,24.4"/>
		<path id="XMLID_359_" fill="none" stroke="#282828" stroke-width="0.691" stroke-linejoin="round" d="M1095.3,1108.1
			c1.3-8.8,3.4-19,7-30c5.3-16.5,12.3-29.8,18.5-39.8"/>
		<path id="XMLID_358_" fill="#A5A4A4" d="M1253.4,1098.9c29.1,0.2,58.9,0.8,89.2,1.8c20.8,0.7,41.2,1.6,61.4,2.6
			c-3-12-7.3-25.4-13.4-39.8c-3.3-7.7-6.7-14.9-10.2-21.4c-1.9-3.6-5.6-5.9-9.7-6c-13.6-0.5-27.4-0.9-41.4-1.1
			c-25.9-0.5-51.2-1.6-76-1.6s-50.1,1-76,1.6c-14,0.3-27.7,0.7-41.4,1.1c-4.1,0.1-7.8,2.5-9.7,6c-3.5,6.6-6.9,13.7-10.2,21.4
			c-6.1,14.4-10.4,27.9-13.4,39.8c20.2-1,40.7-1.9,61.4-2.6C1194.5,1099.7,1224.3,1099.1,1253.4,1098.9"/>
		<path id="XMLID_357_" fill="none" stroke="#282828" stroke-width="0.691" stroke-linejoin="round" d="M1253.4,1098.9
			c29.1,0.2,58.9,0.8,89.2,1.8c20.8,0.7,41.2,1.6,61.4,2.6c-3-12-7.3-25.4-13.4-39.8c-3.3-7.7-6.7-14.9-10.2-21.4
			c-1.9-3.6-5.6-5.9-9.7-6c-13.6-0.5-27.4-0.9-41.4-1.1c-25.9-0.5-51.2-1.6-76-1.6s-50.1,1-76,1.6c-14,0.3-27.7,0.7-41.4,1.1
			c-4.1,0.1-7.8,2.5-9.7,6c-3.5,6.6-6.9,13.7-10.2,21.4c-6.1,14.4-10.4,27.9-13.4,39.8c20.2-1,40.7-1.9,61.4-2.6
			C1194.5,1099.7,1224.3,1099.1,1253.4,1098.9z"/>
		<path id="XMLID_356_" fill="#FFFFFF" d="M1077.5,1142.6c9.7,1.3,26.1,3.9,29.7,4.5c0.5,0.1,1,0.2,1.4,0.5l39.3,19.7
			c3.4,1.7,3,6.2-0.6,7.3l-7.9,2.4c-0.2,0-0.3,0.1-0.5,0.1c-4.3,0.8-31.6,5.1-52.3-11.8c-7-5.7-11.1-12.1-13.6-17.2
			C1071.5,1145.2,1074.1,1142.1,1077.5,1142.6"/>
		<path id="XMLID_355_" fill="none" stroke="#282828" stroke-width="0.691" stroke-linejoin="round" d="M1077.5,1142.6
			c9.7,1.3,26.1,3.9,29.7,4.5c0.5,0.1,1,0.2,1.4,0.5l39.3,19.7c3.4,1.7,3,6.2-0.6,7.3l-7.9,2.4c-0.2,0-0.3,0.1-0.5,0.1
			c-4.3,0.8-31.6,5.1-52.3-11.8c-7-5.7-11.1-12.1-13.6-17.2C1071.5,1145.2,1074.1,1142.1,1077.5,1142.6z"/>
		<path id="XMLID_354_" fill="#FFFFFF" d="M1429.3,1142.6c-9.7,1.3-26.1,3.9-29.7,4.5c-0.5,0.1-1,0.2-1.4,0.5l-39.3,19.7
			c-3.4,1.7-3,6.2,0.6,7.3l7.9,2.4c0.2,0,0.3,0.1,0.5,0.1c4.3,0.8,31.6,5.1,52.3-11.8c7-5.7,11.1-12.1,13.6-17.2
			C1435.3,1145.2,1432.7,1142.1,1429.3,1142.6"/>
		<path id="XMLID_353_" fill="none" stroke="#282828" stroke-width="0.691" stroke-linejoin="round" d="M1429.3,1142.6
			c-9.7,1.3-26.1,3.9-29.7,4.5c-0.5,0.1-1,0.2-1.4,0.5l-39.3,19.7c-3.4,1.7-3,6.2,0.6,7.3l7.9,2.4c0.2,0,0.3,0.1,0.5,0.1
			c4.3,0.8,31.6,5.1,52.3-11.8c7-5.7,11.1-12.1,13.6-17.2C1435.3,1145.2,1432.7,1142.1,1429.3,1142.6z"/>
		<path id="XMLID_352_" fill="none" stroke="#282828" stroke-width="0.691" stroke-linejoin="round" d="M1370.5,1161.6
			c-13.2-1.7-26.9-3.1-41.1-4.3c-26.9-2.1-52.4-2.9-76.3-2.7h0.6c-23.8-0.2-49.3,0.6-76.3,2.7c-14.2,1.1-27.9,2.6-41.1,4.3"/>
		<path id="XMLID_351_" fill="#FFFFFF" d="M1098.8,1238.7c0-4.6-3.8-8.4-8.5-8.4c-4.7,0-8.5,3.7-8.5,8.4c0,4.6,3.8,8.4,8.5,8.4
			C1094.9,1247,1098.8,1243.3,1098.8,1238.7"/>
		
			<ellipse id="XMLID_350_" fill="none" stroke="#282828" stroke-width="0.691" stroke-linejoin="round" cx="1090.2" cy="1238.7" rx="8.5" ry="8.4"/>
		<path id="XMLID_349_" fill="#FFFFFF" d="M1408,1238.7c0-4.6,3.8-8.4,8.5-8.4c4.7,0,8.5,3.7,8.5,8.4c0,4.6-3.8,8.4-8.5,8.4
			C1411.9,1247,1408,1243.3,1408,1238.7"/>
		
			<ellipse id="XMLID_348_" fill="none" stroke="#282828" stroke-width="0.691" stroke-linejoin="round" cx="1416.6" cy="1238.7" rx="8.5" ry="8.4"/>
		<line id="XMLID_347_" fill="#DCDBDB" x1="1430.1" y1="1154.6" x2="1446.6" y2="1174"/>
		
			<line id="XMLID_346_" fill="none" stroke="#282828" stroke-width="0.691" stroke-linejoin="round" x1="1430.1" y1="1154.6" x2="1446.6" y2="1174"/>
		<line id="XMLID_345_" fill="#DCDBDB" x1="1432.5" y1="1143.6" x2="1436.9" y2="1138.5"/>
		
			<line id="XMLID_344_" fill="none" stroke="#282828" stroke-width="0.691" stroke-linejoin="round" x1="1432.5" y1="1143.6" x2="1436.9" y2="1138.5"/>
		<path id="XMLID_343_" fill="none" stroke="#282828" stroke-width="0.691" stroke-linejoin="round" d="M1422.7,1114.8
			c-0.4,4.2-1.6,10-5.2,15.9c-3.8,6.1-8.7,9.7-12.2,12.3c-2.8,2-5.2,3.5-7.1,4.4"/>
		<path id="XMLID_342_" fill="none" stroke="#282828" stroke-width="0.691" stroke-linejoin="round" d="M1418.8,1100
			c-1.5,1.9-4,4.8-7.3,8.1c-13.9,13.7-25.5,17.1-38.1,25.6c-6.5,4.4-15.6,11.9-24.6,24.4"/>
		<path id="XMLID_341_" fill="none" stroke="#282828" stroke-width="0.691" stroke-linejoin="round" d="M1411.5,1108.1
			c-1.3-8.8-3.4-19-7-30c-5.3-16.5-12.3-29.8-18.5-39.8"/>
		<path id="XMLID_340_" fill="#A5A4A4" d="M1080.1,1098.6c0-7.2-9-13.1-20.2-13.1c-11.2,0-20.2,5.8-20.2,13.1s9,13.1,20.2,13.1
			C1071.1,1111.7,1080.1,1105.8,1080.1,1098.6"/>
		
			<ellipse id="XMLID_339_" fill="none" stroke="#282828" stroke-width="0.691" stroke-linejoin="round" cx="1059.9" cy="1098.6" rx="20.2" ry="13.1"/>
		<path id="XMLID_338_" fill="#FFFFFF" d="M1062.5,1111.7c1.8,3.7,3.6,7.4,5.5,11.2c1.3,2.6,2.6,5.2,3.9,7.7
			c2.9-4.3,5.9-8.5,8.8-12.8c-1.6-3.4-3.3-6.8-4.9-10.2c-1-0.3-4.3-1.2-8.1,0.3C1064.9,1108.9,1063.2,1110.8,1062.5,1111.7"/>
		<path id="XMLID_337_" fill="none" stroke="#282828" stroke-width="0.691" stroke-miterlimit="10" d="M1062.5,1111.7
			c1.8,3.7,3.6,7.4,5.5,11.2c1.3,2.6,2.6,5.2,3.9,7.7c2.9-4.3,5.9-8.5,8.8-12.8c-1.6-3.4-3.3-6.8-4.9-10.2c-1-0.3-4.3-1.2-8.1,0.3
			C1064.9,1108.9,1063.2,1110.8,1062.5,1111.7z"/>
		<path id="XMLID_336_" fill="#A5A4A4" d="M1426.7,1098.6c0-7.2,9-13.1,20.2-13.1c11.2,0,20.2,5.8,20.2,13.1s-9,13.1-20.2,13.1
			C1435.7,1111.7,1426.7,1105.8,1426.7,1098.6"/>
		
			<ellipse id="XMLID_335_" fill="none" stroke="#282828" stroke-width="0.691" stroke-linejoin="round" cx="1446.9" cy="1098.6" rx="20.2" ry="13.1"/>
		<path id="XMLID_334_" fill="#FFFFFF" d="M1444.3,1111.7c-1.8,3.7-3.6,7.4-5.5,11.2c-1.3,2.6-2.6,5.2-3.9,7.7
			c-2.9-4.3-5.9-8.5-8.8-12.8c1.6-3.4,3.3-6.8,4.9-10.2c1-0.3,4.3-1.2,8.1,0.3C1441.9,1108.9,1443.5,1110.8,1444.3,1111.7"/>
		<path id="XMLID_333_" fill="none" stroke="#282828" stroke-width="0.691" stroke-miterlimit="10" d="M1444.3,1111.7
			c-1.8,3.7-3.6,7.4-5.5,11.2c-1.3,2.6-2.6,5.2-3.9,7.7c-2.9-4.3-5.9-8.5-8.8-12.8c1.6-3.4,3.3-6.8,4.9-10.2c1-0.3,4.3-1.2,8.1,0.3
			C1441.9,1108.9,1443.5,1110.8,1444.3,1111.7z"/>
	</g>
	<g id="TOP">
		<g id="XMLID_92_">
			<g id="XMLID_591_">
				<path id="XMLID_650_" fill="#FFFFFF" d="M986.6,642.1c1.3,3.7,2,7.5,2.1,11.4c0,0,2.5,57.4,2.5,83.2c0,25.8-2.5,83.2-2.5,83.2
					c-0.2,3.9-0.9,7.8-2.1,11.5c-2.4,6.9-5.3,13.6-8.7,19.9c-5.5,3.6-8.9,5.9-11.1,7.3c7.6-12,11.5-22.9,13.5-29.6l-0.9-16.5
					l0.9-75.8l-0.9-75.9l0.9-16.5c-2-6.7-6-17.6-13.5-29.6c2.2,1.4,5.6,3.7,11.1,7.3C981.3,628.5,984.2,635.2,986.6,642.1z"/>
				<path id="XMLID_649_" fill="#A5A4A4" d="M979.4,812.6l0.9,16.5c-2,6.7-6,17.6-13.5,29.6c-3.5,2.3-3.7,2.5-3.7,2.5
					c-2.3,1.5-5.8,2.9-11.1,3.9C968.5,844.4,976,824.1,979.4,812.6z"/>
				<path id="Z-TRUNK" fill="none" d="M951.9,608.5c16.6,20.6,24.1,40.9,27.5,52.4l0.9,75.9l-0.9,75.8
					c-3.4,11.5-10.9,31.8-27.5,52.4c-12,2.4-33.5,3.1-72-0.1c7.4-0.4,14.4-3.6,19.7-8.9c2.9-3,5.8-6.1,8.8-9.4
					c0.4-0.5,0.8-1,1.3-1.4c1.2-1.4,2.4-2.8,3.5-4.1c11.4-13.6,17.7-30.7,17.7-48.4l0-55.8l0-55.8c0-17.7-6.3-34.8-17.7-48.4
					c-1.2-1.4-2.3-2.8-3.5-4.1c-0.4-0.5-0.8-1-1.3-1.4c-3-3.3-5.9-6.4-8.8-9.4c-5.2-5.4-12.3-8.5-19.7-8.9
					C918.3,605.4,939.8,606.1,951.9,608.5z"/>
				<path id="XMLID_647_" fill="#FFFFFF" d="M966.8,858.7c2.2-1.4,5.6-3.7,11.1-7.3c-19.7,36.6-55.4,62.5-97.2,69.2
					c-14.3,2.3-28.5,4.6-42.8,6.9h-96.6l142.1-14.3c10.9-1.7,39.8-7.7,65.3-32.2C956.2,873.6,962.2,865.9,966.8,858.7z"/>
				<path id="XMLID_646_" fill="#A5A4A4" d="M966.8,614.9c7.6,12,11.5,22.9,13.5,29.6l-0.9,16.5c-3.4-11.5-10.9-31.8-27.5-52.4
					c5.3,1,8.8,2.4,11.1,3.9C963,612.4,963.3,612.6,966.8,614.9z"/>
				<path id="XMLID_645_" fill="#A5A4A4" d="M966.8,858.7c-4.6,7.3-10.5,15-18.2,22.3c-25.4,24.4-54.3,30.5-65.3,32.2
					c12.9-4.5,38.5-15.3,61.6-40.1c2.5-2.7,4.8-5.4,7-8c5.4-1,8.8-2.4,11.1-3.9C963,861.1,963.3,860.9,966.8,858.7z"/>
				<path id="XMLID_644_" fill="#A5A4A4" d="M948.5,592.5c7.7,7.4,13.6,15,18.2,22.3c-3.5-2.3-3.7-2.5-3.7-2.5
					c-2.3-1.5-5.8-2.8-11.1-3.9c-2.2-2.7-4.5-5.4-7-8c-23.1-24.8-48.7-35.6-61.6-40.1C894.2,562.1,923.1,568.1,948.5,592.5z"/>
				<path id="XMLID_643_" fill="#FFFFFF" d="M880.6,553c41.8,6.7,77.6,32.6,97.2,69.2c-5.5-3.6-8.9-5.9-11.1-7.3
					c-4.6-7.3-10.5-15-18.2-22.3c-25.4-24.4-54.3-30.5-65.3-32.2l-142.1-14.3h96.6C852.1,548.4,866.4,550.7,880.6,553z"/>
				<path id="XMLID_642_" fill="#FFFFFF" d="M394.8,592.3c20.5,3,61.9,8.5,139.4,9h0l15.9,0l15.9,0c5.5,0,11.1-0.1,16.9-0.2
					c28.7-0.5,61.6-1.7,98.3-3.9l14.7-1c27.6-1.9,57.1-4.4,88.4-7.7c2.7-0.3,3.1-4,0.5-4.9c-2.3-0.7-4.6-1.5-6.9-2.2
					c-3.9-1.3-7.9-2.4-11.9-3.4c-1-0.3-2-0.5-3-0.7c-2-0.5-4-0.9-6-1.3c-9.1-1.8-18.3-2.9-27.6-3.3c0.6-0.3,13.8-7.3,13.7-19.1
					c0-1.8-0.3-4.4-1.9-7.5l142.1,14.3c12.9,4.5,38.5,15.3,61.6,40.1c2.5,2.7,4.8,5.4,7,8c-12-2.4-33.5-3.1-72,0.1
					c-1-0.1-2-0.1-2.9,0c-42.7,1.8-85.4,3.6-128.1,5.4h0c-56.1,3.2-115.9,4.7-179.1,3.8c-53.4-0.8-104.3-3.2-152.5-6.8
					c-45.3-7.8-90.5-15.6-135.8-23.4c-2-0.3-3.9-0.4-5.9-0.3l0-0.1c-13.7-1.4-32.2-2.6-54.2-2.3c0,0-25.5,0.3-46.3,2.9
					c-57.1,7-124.9,50.6-137.7,58.9l-0.7,0c0.2-3.5,0.3-7,0.5-10.4l-0.3-0.6c15.2-11,31.4-22.1,48.4-33.2
					c11.5-7.5,22.7-14.6,33.7-21.3c0.2-0.2,0.4-0.4,0.6-0.6c5.4-1.4,13.1-3.3,22.6-4.7c15.3-2.4,26.5-2.5,48.8-2.8
					c44-0.5,42.2-0.5,43.6-0.5c16.1,0,38.1-0.1,64.4,0.1c-0.2,0-0.5,0-0.7,0C321.8,578.8,354.9,586.4,394.8,592.3z"/>
				<path id="XMLID_641_" fill="#A5A4A4" d="M913.2,632.5c11.4,13.6,17.7,30.7,17.7,48.4l0,55.8l0,55.8c0,17.7-6.3,34.8-17.7,48.4
					c-1.2,1.4-2.3,2.8-3.6,4.1c-0.4,0.5-0.8,1-1.3,1.4c-3,3.3-5.9,6.5-8.8,9.4c-5.2,5.3-12.3,8.5-19.7,8.9c-1,0-2,0.1-2.9,0
					c-42.7-1.8-85.4-3.6-128.1-5.4c1.3-13.1,2.4-26.6,3.3-40.4c1.6-25.8,1.7-58.8,1.7-82.3s-0.1-56.6-1.7-82.3
					c-0.9-13.8-2-27.3-3.3-40.4c42.7-1.8,85.4-3.6,128.1-5.4c1,0,2,0,2.9,0c7.4,0.4,14.4,3.6,19.7,8.9c2.9,3,5.8,6.1,8.8,9.4
					c0.4,0.5,0.8,1,1.3,1.4C910.8,629.8,912,631.2,913.2,632.5z"/>
				<path id="XMLID_640_" fill="#A5A4A4" d="M909.6,628.4c1.2,1.4,2.4,2.8,3.5,4.1C912,631.2,910.8,629.8,909.6,628.4
					c-0.4-0.5-0.8-1-1.3-1.4C908.8,627.5,909.2,627.9,909.6,628.4z"/>
				<path id="XMLID_639_" fill="#A5A4A4" d="M913.2,841c-1.2,1.4-2.3,2.8-3.5,4.1c-0.4,0.5-0.8,1-1.3,1.4c0.4-0.5,0.8-1,1.3-1.4
					C910.8,843.7,912,842.3,913.2,841z"/>
				<path id="XMLID_638_" fill="#FFFFFF" d="M275.5,886.2c2,0.1,3.9,0,5.9-0.3c45.3-7.8,90.5-15.6,135.8-23.4
					c48.2-3.6,99.1-6,152.5-6.8c63.2-0.9,123,0.6,179.1,3.8h0c42.7,1.8,85.4,3.6,128.1,5.4c1,0,2,0,2.9,0c38.4,3.3,59.9,2.5,72,0.1
					c-2.2,2.7-4.5,5.3-7,8c-23.1,24.8-48.7,35.6-61.6,40.1l-142.1,14.3c1.6-3.1,1.9-5.7,1.9-7.5c0.1-11.8-13.1-18.9-13.7-19.2
					c16.5-0.8,32.8-3.7,48.5-8.8c2.3-0.7,4.6-1.5,6.9-2.2c2.6-0.8,2.2-4.6-0.5-4.9c-31.3-3.3-60.8-5.8-88.4-7.7l-14.7-1
					c-36.7-2.2-69.6-3.4-98.3-3.9c-5.8-0.1-11.4-0.2-16.9-0.2l-15.9,0l-15.9,0h0c-77.5,0.5-118.8,5.9-139.4,9
					c-39.9,5.9-72.9,13.5-96.5,19.7c0.2,0,0.4,0,0.7,0c-26.3,0.1-48.3,0.1-64.4,0.1c-1.4,0,0.4,0-43.6-0.5
					c-22.3-0.3-33.5-0.4-48.8-2.8c-9.4-1.5-17.2-3.3-22.6-4.7c-0.2-0.2-0.4-0.4-0.6-0.6c-11-6.7-22.2-13.8-33.7-21.3
					c-17-11.1-33.2-22.2-48.4-33.2l0.3-0.6c-0.2-3.5-0.3-6.9-0.5-10.4l0.7,0c12.8,8.4,80.6,51.9,137.7,58.9
					c20.8,2.5,46.3,2.9,46.3,2.9C243.2,888.9,261.8,887.6,275.5,886.2L275.5,886.2z"/>
				<path id="XMLID_637_" fill="#FFFFFF" d="M837.9,927.5c-1.8,0.3-3.7,0.6-5.5,0.9c-30.4-0.5-60.7-0.8-91.1-0.9H837.9z"/>
				<path id="XMLID_636_" fill="#A5A4A4" d="M784.8,583.7c2.6,0.8,2.2,4.6-0.5,4.9c-31.3,3.3-60.8,5.8-88.4,7.7l33.6-23.5
					c9.3,0.4,18.5,1.6,27.6,3.3c2,0.4,4,0.8,6,1.3c1,0.2,2,0.5,3,0.7c4,1,8,2.1,11.9,3.4C780.3,582.2,782.5,582.9,784.8,583.7z"/>
				<path id="XMLID_635_" fill="#A5A4A4" d="M784.8,583.7c-2.3-0.7-4.6-1.5-6.9-2.2c-3.9-1.3-7.9-2.4-11.9-3.4c4,1,8,2.1,11.9,3.4
					C780.3,582.2,782.5,582.9,784.8,583.7z"/>
				<path id="XMLID_634_" fill="#A5A4A4" d="M784.3,885c2.7,0.3,3.1,4,0.5,4.9c-2.3,0.7-4.6,1.5-6.9,2.2c-15.7,5.1-32,8-48.5,8.8
					l-33.6-23.5C723.5,879.2,753,881.7,784.3,885z"/>
				<path id="XMLID_633_" fill="#A5A4A4" d="M757,576.1c2,0.4,4,0.8,6,1.3C761.1,576.9,759.1,576.5,757,576.1z"/>
				<path id="Z_x5F_ROOF" fill="none" d="M417.2,611.1c48.2,3.6,99.1,6,152.5,6.8c63.2,0.9,123-0.6,179.1-3.8h0
					c1.3,13.1,2.4,26.6,3.3,40.4c1.6,25.8,1.7,58.8,1.7,82.3s-0.1,56.6-1.7,82.3c-0.9,13.8-2,27.3-3.3,40.4h0
					c-56.1-3.2-115.9-4.7-179.1-3.8c-53.4,0.8-104.3,3.2-152.5,6.8c2.6-0.5,4.5-2.9,4.2-5.6c-1.2-12.2-2.3-24.7-3.1-37.5
					c-1.7-26-2.4-59.1-2.3-82.6c-0.1-23.5,0.6-56.7,2.3-82.6c0.9-12.8,1.9-25.4,3.1-37.5C421.7,613.9,419.8,611.5,417.2,611.1z"/>
				<path id="XMLID_631_" fill="#FFFFFF" d="M741.2,546.1c30.4-0.1,60.7-0.4,91.1-0.9c1.8,0.3,3.7,0.6,5.5,0.9H741.2z"/>
				<polygon id="XMLID_630_" fill="#FFFFFF" points="729.5,572.7 695.9,596.2 681.2,597.2 711.1,572.2 				"/>
				<polygon id="XMLID_629_" fill="#FFFFFF" points="729.5,900.8 711.1,901.3 681.2,876.4 695.9,877.3 				"/>
				<path id="XMLID_628_" fill="#FFFFFF" d="M696.4,919.5c12.2-0.1,22.1,1.4,21.9,3.4c-0.1,2-10.2,3.8-22.4,4
					c-12.2,0.2-22-1.4-21.9-3.4C674.1,921.5,684.2,919.7,696.4,919.5z"/>
				<path id="XMLID_627_" fill="#FFFFFF" d="M718.3,550.6c0.2,2-9.7,3.6-21.9,3.4c-12.2-0.2-22.3-1.9-22.4-4
					c-0.1-2,9.7-3.6,21.9-3.4C708.1,546.8,718.2,548.5,718.3,550.6z"/>
				<path id="XMLID_626_" fill="#A5A4A4" d="M711.1,572.2l-29.9,25c-36.7,2.2-69.6,3.4-98.3,3.9c-5.8,0.1-11.4,0.2-16.9,0.2
					l-12.6-31.6C606.9,570,659.5,570.8,711.1,572.2z"/>
				<path id="XMLID_623_" fill="#FFFFFF" d="M718.3,550.6c-0.1-2-10.2-3.8-22.4-4c-12.2-0.2-22,1.4-21.9,3.4c0.1,2,10.2,3.8,22.4,4
					C708.7,554.1,718.5,552.6,718.3,550.6z M523.5,546.9c72.4-1.1,144.8-0.6,217.2-0.8h0.5c1.6,3.1,1.9,5.7,1.9,7.5
					c0.1,11.8-13.1,18.8-13.7,19.1l-18.4-0.6c-51.6-1.4-104.2-2.2-157.7-2.5l-20.8,0l0,0c-0.3-3.4-1.1-8.2-3.5-13.6
					C527.3,552.2,525.3,549.2,523.5,546.9z"/>
				<path id="XMLID_620_" fill="#FFFFFF" d="M695.9,926.9c12.2-0.2,22.3-1.9,22.4-4c0.2-2-9.7-3.6-21.9-3.4
					c-12.2,0.2-22.3,1.9-22.4,4C673.8,925.5,683.7,927.1,695.9,926.9z M729.5,900.8c0.6,0.3,13.8,7.3,13.7,19.2
					c0,1.8-0.3,4.4-1.9,7.5h-0.5c-72.4-0.3-144.8,0.2-217.2-0.9c1.7-2.2,3.7-5.3,5.4-9.1c2.4-5.3,3.2-10.1,3.5-13.5l0,0l20.8,0
					c53.5-0.3,106.1-1.1,157.7-2.5L729.5,900.8z"/>
				<path id="XMLID_619_" fill="#A5A4A4" d="M582.9,872.5c28.7,0.5,61.6,1.7,98.3,3.9l29.9,25c-51.6,1.4-104.2,2.2-157.7,2.5
					l12.6-31.6C571.5,872.3,577.1,872.4,582.9,872.5z"/>
				<polygon id="XMLID_618_" fill="#FFFFFF" points="553.3,569.7 566,601.3 550.1,601.3 532.5,569.6 				"/>
				<polygon id="XMLID_617_" fill="#FFFFFF" points="566,872.3 553.3,903.8 532.5,903.9 550.1,872.2 				"/>
				<path id="XMLID_616_" fill="#FFFFFF" d="M550.1,872.2l-17.6,31.7l-20.9,0c5.9-7.9,17.4-24.3,22.6-31.7h0L550.1,872.2z"/>
				<path id="XMLID_615_" fill="#A5A4A4" d="M534.1,872.2c-5.2,7.5-16.6,23.8-22.6,31.7c-72.6,0-143.5-1.1-212.6-3
					c-0.2,0-0.5,0-0.7,0c23.6-6.2,56.6-13.8,96.5-19.7C415.3,878.1,456.7,872.7,534.1,872.2z"/>
				<path id="XMLID_614_" fill="#A5A4A4" d="M534.1,601.3c-77.5-0.5-118.8-5.9-139.4-9c-39.9-5.9-72.9-13.5-96.5-19.7
					c0.2,0,0.4,0,0.7,0c69.1-2,140-3,212.6-3C517.5,577.5,529,593.9,534.1,601.3z"/>
				<path id="XMLID_613_" fill="#FFFFFF" d="M511.6,569.6l20.9,0l17.6,31.7l-15.9,0h0C529,593.9,517.5,577.5,511.6,569.6z"/>
				<path id="XMLID_612_" fill="#FFFFFF" d="M486.4,918.8c12.3-0.2,22,1.4,21.9,3.4c-0.1,2-10.2,3.8-22.4,4
					c-12.2,0.1-22.1-1.4-21.9-3.4C464.1,920.7,474.1,918.9,486.4,918.8z"/>
				<path id="XMLID_611_" fill="#FFFFFF" d="M508.3,551.3c0.1,2-9.7,3.6-21.9,3.4c-12.2-0.2-22.3-1.9-22.4-4
					c-0.1-2,9.7-3.6,21.9-3.4C498.1,547.5,508.1,549.3,508.3,551.3z"/>
				<path id="XMLID_608_" fill="#FFFFFF" d="M485.9,926.1c12.2-0.2,22.3-1.9,22.4-4c0.1-2-9.7-3.6-21.9-3.4
					c-12.2,0.2-22.3,1.9-22.4,4C463.8,924.8,473.6,926.3,485.9,926.1z M518.4,926.5c-58.1-0.9-111-0.3-151.4,0.7
					c-6-15.8-7.2-17.6-9.8-19.1c-6.9-3.9-18.1-1.8-21.7,4.3c-2.6,4.3-0.9,10.1,2.4,15.6c-1.3,0-2.5,0.1-3.7,0.1h-0.1l-186.6-6.4
					c-9.4-9.6-18.7-19.2-28.1-28.9c5.4,1.4,13.1,3.3,22.6,4.7c15.3,2.4,26.5,2.5,48.8,2.8c44,0.5,42.2,0.5,43.6,0.5
					c16.1,0,38.1,0.1,64.4-0.1c69.1,2,140,3,212.6,3l20.9,0l0,0c-0.3,3.4-1.1,8.2-3.5,13.5c-1.7,3.8-3.7,6.9-5.4,9.1
					C521.8,926.6,520.1,926.6,518.4,926.5z"/>
				<path id="XMLID_605_" fill="#FFFFFF" d="M485.9,547.4c-12.2-0.2-22.1,1.4-21.9,3.4c0.1,2,10.2,3.8,22.4,4
					c12.3,0.1,22-1.4,21.9-3.4C508.1,549.3,498.1,547.5,485.9,547.4z M367,546.3c40.4,1,93.3,1.6,151.4,0.7c1.7,0,3.4,0,5.1-0.1
					c1.7,2.2,3.7,5.3,5.4,9.1c2.4,5.3,3.2,10.1,3.5,13.6l0,0l-20.9,0c-72.6,0-143.5,1.1-212.6,3c-26.3-0.1-48.3-0.1-64.4-0.1
					c-1.4,0,0.4,0-43.6,0.5c-22.3,0.3-33.5,0.4-48.8,2.8c-9.4,1.5-17.2,3.3-22.6,4.7c9.4-9.6,18.7-19.3,28.1-28.9v0l186.6-6.3h0
					c1.2,0,2.5,0.1,3.7,0.1c-3.4,5.5-5,11.2-2.5,15.6c3.6,6.1,14.8,8.3,21.7,4.3C359.8,564,361,562.1,367,546.3z"/>
				<path id="XMLID_604_" fill="#A5A4A4" d="M421.4,616.6c-1.2,12.2-2.3,24.7-3.1,37.5c-1.7,26-2.4,59.1-2.3,82.6
					c-0.1,23.5,0.6,56.6,2.3,82.6c0.9,12.8,1.9,25.4,3.1,37.5c0.3,2.7-1.6,5.1-4.2,5.6c-45.3,7.8-90.5,15.6-135.8,23.4
					c-2,0.3-3.9,0.4-5.9,0.3c-7.1-0.5-13.8-4.1-18-10.1c0-0.1-0.1-0.1-0.1-0.2c-12-17.1-14.4-34.5-16.4-52.6
					c-2.2-20.9-4-55.6-4.1-86.5c0-30.9,1.9-65.6,4.1-86.5c1.9-18.2,4.4-35.5,16.4-52.6c0-0.1,0.1-0.1,0.1-0.2
					c4.2-6,10.9-9.6,18-10.1c2-0.1,3.9,0,5.9,0.3c45.3,7.8,90.5,15.6,135.8,23.4C419.8,611.5,421.7,613.9,421.4,616.6z"/>
				<path id="XMLID_603_" fill="#A5A4A4" d="M372.4,526c1.2,1.3,1,3.4-5.4,20.2c0,0,0,0,0,0c-10.6-0.3-20.3-0.5-29-0.8
					c3.2-5.2,8.1-10.2,12.4-13.3C357.8,526.7,369.2,522.5,372.4,526z"/>
				<path id="XMLID_602_" fill="#A5A4A4" d="M372.4,947.5c-3.3,3.6-14.6-0.7-22.1-6.1c-4.3-3.2-9.1-8.1-12.4-13.3
					c8.7-0.3,18.4-0.5,29-0.8c0,0,0,0,0,0C373.4,944.1,373.6,946.2,372.4,947.5z"/>
				<path id="XMLID_601_" fill="#A5A4A4" d="M367,546.3c-6,15.8-7.2,17.7-9.8,19.1c-6.9,3.9-18.1,1.8-21.7-4.3
					c-2.6-4.3-0.9-10.1,2.5-15.6C346.7,545.8,356.4,546.1,367,546.3z"/>
				<path id="XMLID_600_" fill="#A5A4A4" d="M357.2,908.1c2.6,1.5,3.8,3.4,9.8,19.1c-10.6,0.3-20.3,0.5-29,0.8
					c-3.4-5.5-5-11.2-2.4-15.6C339.2,906.3,350.4,904.2,357.2,908.1z"/>
				<path id="XMLID_599_" fill="#FFFFFF" d="M288,543.5c0,0,17.2,0.9,46.3,1.9l-186.6,6.3v0c-11.5,2.1-30.7,7-52,20.5
					C61,594.1,43,624.1,36.8,635.6l-5-12c25.7-47.6,75.2-77.8,129.7-78.5L288,543.5z"/>
				<path id="Z-HOOD" fill="none" d="M257.5,876.1c4.2,6,10.9,9.6,18,10.1l0,0.1c-13.7,1.4-32.2,2.6-54.2,2.3c0,0-25.5-0.4-46.3-2.9
					c-57.1-7-124.9-50.6-137.7-58.9l-0.7,0c-1.6-29.7-4-59.3-4-89c0-30.4,2.4-60.8,4-91.1l0.7,0c12.8-8.4,80.6-52,137.7-58.9
					c20.8-2.5,46.3-2.9,46.3-2.9c22-0.3,40.5,1,54.2,2.3l0,0.1c-7.1,0.5-13.8,4.1-18,10.1c0,0-0.1,0.1-0.1,0.2
					c-12,17.1-14.4,34.5-16.4,52.6c-2.2,20.9-4,55.6-4.1,86.5c0,30.9,1.9,65.6,4.1,86.5c1.9,18.2,4.4,35.5,16.4,52.6
					C257.5,876,257.5,876,257.5,876.1z"/>
				<path id="XMLID_597_" fill="#FFFFFF" d="M95.6,901.3c21.3,13.4,40.6,18.4,52,20.5l186.6,6.4c-29.1,0.9-46.2,1.8-46.2,1.8
					l-126.4-1.6c-54.4-0.7-104-30.9-129.7-78.5l5-12C43,849.5,61,879.4,95.6,901.3z"/>
				<path id="XMLID_596_" fill="#FFFFFF" d="M36.8,635.6c6.2-11.5,24.1-41.5,58.8-63.3c21.3-13.5,40.6-18.4,52-20.5
					c-9.4,9.6-18.7,19.2-28.1,28.9c-0.2,0.2-0.4,0.4-0.6,0.6c-11,6.7-22.2,13.8-33.7,21.3C68.2,613.6,52.1,624.7,36.8,635.6
					L36.8,635.6z"/>
				<path id="XMLID_595_" fill="#FFFFFF" d="M95.6,901.3C61,879.4,43,849.5,36.8,837.9l0-0.1c15.2,11,31.4,22.1,48.4,33.2
					c11.5,7.5,22.7,14.6,33.7,21.3c0.2,0.2,0.4,0.4,0.6,0.6c9.4,9.6,18.7,19.3,28.1,28.9C136.1,919.7,116.9,914.7,95.6,901.3z"/>
				<path id="XMLID_594_" fill="#FFFFFF" d="M36.9,635.7l0.3,0.6c-0.2,3.5-0.3,7-0.5,10.4c-1.6,30.4-4,60.7-4,91.1
					c0,29.7,2.4,59.3,4,89c0.2,3.5,0.4,6.9,0.5,10.4l-0.3,0.6c0,0-0.1-0.1-0.1-0.1c0,0.1,0.1,0.1,0.1,0.2l-5,12
					c-1.1-2-2.1-4-3.1-6.1c-6-12.5-9.2-26.3-9.2-40.2v-66.9v-66.9c0-13.9,3.1-27.6,9.2-40.2c1-2.1,2-4.1,3.1-6.1L36.9,635.7
					c-0.1,0-0.1,0-0.1,0.1C36.8,635.8,36.8,635.7,36.9,635.7z"/>
				<path id="XMLID_593_" fill="#FFFFFF" d="M36.9,635.7c0,0-0.1,0.1-0.1,0.1C36.8,635.7,36.8,635.7,36.9,635.7L36.9,635.7z"/>
				<path id="XMLID_592_" fill="#FFFFFF" d="M36.9,837.8L36.9,837.8c-0.1,0-0.1,0-0.1-0.1C36.8,837.8,36.8,837.8,36.9,837.8z"/>
			</g>
			<g id="XMLID_539_">
				<path id="XMLID_590_" fill="none" stroke="#282828" stroke-width="1.224" stroke-linejoin="round" d="M741.2,546.1
					c30.4-0.1,60.7-0.4,91.1-0.9c1.8,0.3,3.7,0.6,5.5,0.9c14.3,2.3,28.5,4.6,42.8,6.9c41.8,6.7,77.6,32.6,97.2,69.2
					c3.4,6.3,6.3,13,8.7,19.9c1.3,3.7,2,7.5,2.1,11.4c0,0,2.5,57.4,2.5,83.2c0,25.8-2.5,83.2-2.5,83.2c-0.2,3.9-0.9,7.8-2.1,11.5
					c-2.4,6.9-5.3,13.6-8.7,19.9c-19.7,36.6-55.4,62.5-97.2,69.2c-14.3,2.3-28.5,4.6-42.8,6.9c-1.8,0.3-3.7,0.6-5.5,0.9
					c-30.4-0.5-60.7-0.8-91.1-0.9"/>
				<path id="XMLID_589_" fill="none" stroke="#282828" stroke-width="1.224" stroke-linejoin="round" d="M367,546.3
					c40.4,1,93.3,1.6,151.4,0.7c1.7,0,3.4,0,5.1-0.1c72.4-1.1,144.8-0.6,217.2-0.8"/>
				<path id="XMLID_588_" fill="none" stroke="#282828" stroke-width="1.224" stroke-linejoin="round" d="M334.3,545.4
					c1.2,0,2.5,0.1,3.7,0.1"/>
				<path id="XMLID_587_" fill="none" stroke="#282828" stroke-width="1.224" stroke-linejoin="round" d="M334.2,928.1
					c-29.1,0.9-46.2,1.8-46.2,1.8l-126.4-1.6c-54.4-0.7-104-30.9-129.7-78.5c-1.1-2-2.1-4-3.1-6.1c-6-12.5-9.2-26.3-9.2-40.2v-66.9
					v-66.9c0-13.9,3.1-27.6,9.2-40.2c1-2.1,2-4.1,3.1-6.1c25.7-47.6,75.2-77.8,129.7-78.5l126.4-1.6c0,0,17.2,0.9,46.3,1.9"/>
				<path id="XMLID_586_" fill="none" stroke="#282828" stroke-width="1.224" stroke-linejoin="round" d="M338,928
					c-1.3,0-2.5,0.1-3.7,0.1"/>
				<path id="XMLID_585_" fill="none" stroke="#282828" stroke-width="1.224" stroke-linejoin="round" d="M740.8,927.5
					c-72.4-0.3-144.8,0.2-217.2-0.9c-1.7,0-3.4,0-5.1-0.1c-58.1-0.9-111-0.3-151.4,0.7"/>
				<path id="XMLID_584_" fill="none" stroke="#282828" stroke-width="0.691" stroke-linejoin="round" d="M119.5,580.6
					c5.4-1.4,13.1-3.3,22.6-4.7c15.3-2.4,26.5-2.5,48.8-2.8c44-0.5,42.2-0.5,43.6-0.5c16.1,0,38.1-0.1,64.4,0.1"/>
				<polyline id="XMLID_583_" fill="none" stroke="#282828" stroke-width="0.691" stroke-linejoin="round" points="511.6,569.6 
					532.5,569.6 553.3,569.7 				"/>
				<path id="XMLID_582_" fill="none" stroke="#282828" stroke-width="0.691" stroke-linejoin="round" d="M523.5,546.9
					C523.5,546.9,523.5,546.9,523.5,546.9c1.7,2.3,3.7,5.3,5.4,9.1c2.4,5.3,3.2,10.1,3.5,13.6l0,0l17.6,31.7"/>
				<polyline id="XMLID_581_" fill="none" stroke="#282828" stroke-width="0.691" stroke-linejoin="round" points="534.2,601.3 
					550.1,601.3 566,601.3 				"/>
				<path id="XMLID_580_" fill="none" stroke="#282828" stroke-width="0.691" stroke-linejoin="round" d="M711.1,572.2l18.4,0.6
					c0.6-0.3,13.8-7.3,13.7-19.1c0-1.8-0.3-4.4-1.9-7.5"/>
				
					<line id="XMLID_579_" fill="none" stroke="#282828" stroke-width="0.691" stroke-linejoin="round" x1="681.2" y1="597.2" x2="695.9" y2="596.2"/>
				<path id="XMLID_578_" fill="none" stroke="#282828" stroke-width="0.691" stroke-linejoin="round" d="M338,545.5
					c-3.4,5.5-5,11.2-2.5,15.6c3.6,6.1,14.8,8.3,21.7,4.3c2.6-1.5,3.8-3.4,9.8-19.1c0,0,0,0,0,0c6.4-16.9,6.6-18.9,5.4-20.2
					c-3.3-3.6-14.6,0.7-22.1,6.1C346.1,535.3,341.2,540.3,338,545.5z"/>
				<path id="XMLID_577_" fill="none" stroke="#282828" stroke-width="0.691" stroke-linejoin="round" d="M37.3,646.8
					c12.8-8.4,80.6-52,137.7-58.9c20.8-2.5,46.3-2.9,46.3-2.9c22-0.3,40.5,1,54.2,2.3"/>
				<path id="XMLID_576_" fill="none" stroke="#282828" stroke-width="0.691" stroke-linejoin="round" d="M966.8,614.9
					c2.2,1.4,5.6,3.7,11.1,7.3"/>
				<path id="XMLID_575_" fill="none" stroke="#282828" stroke-width="0.691" stroke-linejoin="round" d="M879.9,608.6
					c38.4-3.3,59.9-2.5,72-0.1"/>
				<path id="XMLID_574_" fill="none" stroke="#282828" stroke-width="0.691" stroke-linejoin="round" d="M417.2,611.1
					c48.2,3.6,99.1,6,152.5,6.8c63.2,0.9,123-0.6,179.1-3.8"/>
				<path id="XMLID_573_" fill="none" stroke="#282828" stroke-width="0.691" stroke-linejoin="round" d="M508.3,551.3
					c-0.1-2-10.2-3.8-22.4-4c-12.2-0.2-22.1,1.4-21.9,3.4c0.1,2,10.2,3.8,22.4,4C498.6,554.9,508.4,553.4,508.3,551.3z"/>
				<path id="XMLID_572_" fill="none" stroke="#282828" stroke-width="0.691" stroke-linejoin="round" d="M718.3,550.6
					c-0.1-2-10.2-3.8-22.4-4c-12.2-0.2-22,1.4-21.9,3.4c0.1,2,10.2,3.8,22.4,4C708.7,554.1,718.5,552.6,718.3,550.6z"/>
				<polyline id="XMLID_571_" fill="none" stroke="#282828" stroke-width="0.691" stroke-linejoin="round" points="718.3,546.1 
					740.8,546.1 741.2,546.1 837.9,546.1 838.7,546.1 				"/>
				<polyline id="XMLID_570_" fill="none" stroke="#282828" stroke-width="0.691" stroke-linejoin="round" points="147.6,551.8 
					334.2,545.4 334.3,545.4 				"/>
				
					<line id="XMLID_569_" fill="none" stroke="#282828" stroke-width="0.691" stroke-linejoin="round" x1="883.3" y1="560.4" x2="741.2" y2="546.1"/>
				<path id="XMLID_568_" fill="none" stroke="#282828" stroke-width="0.691" stroke-linejoin="round" d="M966.8,614.9
					c7.6,12,11.5,22.9,13.5,29.6l-0.9,16.5c-3.4-11.5-10.9-31.8-27.5-52.4c-2.2-2.7-4.5-5.4-7-8c-23.1-24.8-48.7-35.6-61.6-40.1
					c10.9,1.7,39.8,7.7,65.3,32.2C956.2,599.9,962.2,607.6,966.8,614.9z"/>
				<path id="XMLID_567_" fill="none" stroke="#282828" stroke-width="0.691" stroke-linejoin="round" d="M966.8,858.7
					c7.6-12,11.5-22.9,13.5-29.6l-0.9-16.5c-3.4,11.5-10.9,31.8-27.5,52.4c-2.2,2.7-4.5,5.3-7,8c-23.1,24.8-48.7,35.6-61.6,40.1
					c10.9-1.7,39.8-7.7,65.3-32.2C956.2,873.6,962.2,865.9,966.8,858.7z"/>
				<path id="XMLID_566_" fill="none" stroke="#282828" stroke-width="0.691" stroke-linejoin="round" d="M36.8,635.6
					c0,0.1-0.1,0.1-0.1,0.2C36.8,635.8,36.8,635.7,36.8,635.6c15.3-10.9,31.4-22,48.4-33.1c11.5-7.5,22.7-14.6,33.7-21.3
					c0.2-0.2,0.4-0.4,0.6-0.6c9.4-9.6,18.7-19.3,28.1-28.9c-11.5,2.1-30.7,7-52,20.5C61,594.1,43,624.1,36.8,635.6z"/>
				<path id="XMLID_565_" fill="none" stroke="#282828" stroke-width="0.691" stroke-linejoin="round" d="M36.8,837.9
					c0-0.1-0.1-0.1-0.1-0.2C36.8,837.8,36.8,837.8,36.8,837.9c15.3,10.9,31.4,22,48.4,33.1c11.5,7.5,22.7,14.6,33.7,21.3
					c0.2,0.2,0.4,0.4,0.6,0.6c9.4,9.6,18.7,19.3,28.1,28.9c-11.5-2.1-30.7-7.1-52-20.5C61,879.4,43,849.5,36.8,837.9z"/>
				<path id="XMLID_564_" fill="none" stroke="#282828" stroke-width="0.691" stroke-linejoin="round" d="M118.3,892.5
					c0.4,0.1,0.8,0.2,1.3,0.3c5.4,1.4,13.1,3.3,22.6,4.7c15.3,2.4,26.5,2.5,48.8,2.8c44,0.5,42.2,0.5,43.6,0.5
					c16.1,0,38.1,0.1,64.4-0.1"/>
				<polyline id="XMLID_563_" fill="none" stroke="#282828" stroke-width="0.691" stroke-linejoin="round" points="511.6,903.9 
					532.5,903.9 553.3,903.8 				"/>
				<path id="XMLID_562_" fill="none" stroke="#282828" stroke-width="0.691" stroke-linejoin="round" d="M523.5,926.6
					C523.5,926.6,523.5,926.6,523.5,926.6c1.7-2.3,3.7-5.3,5.4-9.1c2.4-5.3,3.2-10.1,3.5-13.5l0,0l17.6-31.7"/>
				<polyline id="XMLID_561_" fill="none" stroke="#282828" stroke-width="0.691" stroke-linejoin="round" points="534.2,872.2 
					550.1,872.2 566,872.3 				"/>
				<path id="XMLID_560_" fill="none" stroke="#282828" stroke-width="0.691" stroke-linejoin="round" d="M711.1,901.3l18.4-0.6
					c0.6,0.3,13.8,7.3,13.7,19.2c0,1.8-0.3,4.4-1.9,7.5"/>
				
					<line id="XMLID_559_" fill="none" stroke="#282828" stroke-width="0.691" stroke-linejoin="round" x1="681.2" y1="876.4" x2="695.9" y2="877.3"/>
				<path id="XMLID_558_" fill="none" stroke="#282828" stroke-width="0.691" stroke-linejoin="round" d="M338,928
					c-3.4-5.5-5-11.2-2.4-15.6c3.6-6.1,14.8-8.3,21.7-4.3c2.6,1.5,3.8,3.4,9.8,19.1c0,0,0,0,0,0c6.4,16.9,6.6,18.9,5.4,20.2
					c-3.3,3.6-14.6-0.7-22.1-6.1C346.1,938.2,341.2,933.2,338,928z"/>
				<path id="XMLID_557_" fill="none" stroke="#282828" stroke-width="0.691" stroke-linejoin="round" d="M37.3,826.8
					c12.8,8.4,80.6,51.9,137.7,58.9c20.8,2.5,46.3,2.9,46.3,2.9c22,0.3,40.5-1,54.2-2.3"/>
				<path id="XMLID_556_" fill="none" stroke="#282828" stroke-width="0.691" stroke-linejoin="round" d="M31.9,849.9L31.9,849.9
					l5-12l0-0.1l0.3-0.6c-0.2-3.5-0.3-6.9-0.5-10.4c-1.6-29.7-4-59.3-4-89c0-30.4,2.4-60.8,4-91.1c0.2-3.5,0.3-7,0.5-10.4l-0.3-0.6
					l0-0.1l-5-12v0"/>
				<path id="XMLID_555_" fill="none" stroke="#4E4E50" stroke-width="0.691" stroke-linejoin="round" d="M511.6,569.6
					c-72.6,0-143.5,1.1-212.6,3c-0.2,0-0.5,0-0.7,0c23.6,6.2,56.6,13.8,96.5,19.7c20.5,3,61.9,8.5,139.4,9
					C529,593.9,517.5,577.5,511.6,569.6z"/>
				<path id="XMLID_554_" fill="none" stroke="#4E4E50" stroke-width="0.691" stroke-linejoin="round" d="M711.1,572.2
					c-51.6-1.4-104.2-2.2-157.7-2.5l12.6,31.6c5.5,0,11.1-0.1,16.9-0.2c28.7-0.5,61.6-1.7,98.3-3.9L711.1,572.2z"/>
				<path id="XMLID_553_" fill="none" stroke="#4E4E50" stroke-width="0.691" stroke-linejoin="round" d="M784.8,583.7
					c-2.3-0.7-4.6-1.5-6.9-2.2c-3.9-1.3-7.9-2.4-11.9-3.4c-1-0.3-2-0.5-3-0.7c-2-0.5-4-0.9-6-1.3c-9.1-1.8-18.3-2.9-27.6-3.3
					l-33.6,23.5c27.6-1.9,57.1-4.4,88.4-7.7C787,588.3,787.4,584.5,784.8,583.7z"/>
				<path id="XMLID_552_" fill="none" stroke="#4E4E50" stroke-width="0.691" stroke-linejoin="round" d="M417.2,611.1
					c2.6,0.5,4.5,2.9,4.2,5.5c-1.2,12.2-2.3,24.7-3.1,37.5c-1.7,26-2.4,59.1-2.3,82.6c-0.1,23.5,0.6,56.6,2.3,82.6
					c0.9,12.8,1.9,25.4,3.1,37.5c0.3,2.7-1.6,5.1-4.2,5.6c-45.3,7.8-90.5,15.6-135.8,23.4c-2,0.3-3.9,0.4-5.9,0.3
					c-7.1-0.5-13.8-4.1-18-10.1c0-0.1-0.1-0.1-0.1-0.2c-12-17.1-14.4-34.5-16.4-52.6c-2.2-20.9-4-55.6-4.1-86.5
					c0-30.9,1.9-65.6,4.1-86.5c1.9-18.2,4.4-35.5,16.4-52.6c0-0.1,0.1-0.1,0.1-0.2c4.2-6,10.9-9.6,18-10.1c2-0.1,3.9,0,5.9,0.3
					C326.6,595.4,371.9,603.3,417.2,611.1z"/>
				<path id="XMLID_551_" fill="none" stroke="#4E4E50" stroke-width="0.691" stroke-linejoin="round" d="M511.6,903.9
					c-72.6,0-143.5-1.1-212.6-3c-0.2,0-0.5,0-0.7,0c23.6-6.2,56.6-13.8,96.5-19.7c20.5-3,61.9-8.5,139.4-9
					C529,879.7,517.5,896,511.6,903.9z"/>
				<path id="XMLID_550_" fill="none" stroke="#4E4E50" stroke-width="0.691" stroke-linejoin="round" d="M711.1,901.3
					c-51.6,1.4-104.2,2.2-157.7,2.5l12.6-31.6c5.5,0,11.1,0.1,16.9,0.2c28.7,0.5,61.6,1.7,98.3,3.9L711.1,901.3z"/>
				<path id="XMLID_549_" fill="none" stroke="#4E4E50" stroke-width="0.691" stroke-linejoin="round" d="M695.9,877.3
					c27.6,1.9,57.1,4.3,88.4,7.7c2.7,0.3,3.1,4,0.5,4.9c-2.3,0.7-4.6,1.5-6.9,2.2c-15.7,5.1-32,8-48.5,8.8L695.9,877.3z"/>
				<path id="XMLID_548_" fill="none" stroke="#4E4E50" stroke-width="0.691" stroke-linejoin="round" d="M748.8,614
					c1.3,13.1,2.4,26.6,3.3,40.4c1.6,25.8,1.7,58.8,1.7,82.3s-0.1,56.6-1.7,82.3c-0.9,13.8-2,27.3-3.3,40.4
					c42.7,1.8,85.4,3.6,128.1,5.4c1,0,2,0,2.9,0c7.4-0.4,14.4-3.6,19.7-8.9c2.9-3,5.8-6.1,8.8-9.4c0.4-0.5,0.8-1,1.3-1.4
					c1.2-1.4,2.4-2.8,3.6-4.1c11.4-13.6,17.7-30.7,17.7-48.4l0-55.8l0-55.8c0-17.7-6.3-34.8-17.7-48.4c-1.2-1.4-2.3-2.8-3.6-4.1
					c-0.4-0.5-0.8-1-1.3-1.4c-3-3.3-5.9-6.4-8.8-9.4c-5.2-5.4-12.3-8.5-19.7-8.9c-1-0.1-2-0.1-2.9,0
					C834.3,610.4,791.5,612.2,748.8,614z"/>
				<path id="XMLID_547_" fill="none" stroke="#282828" stroke-width="0.691" stroke-linejoin="round" d="M879.9,864.9
					c38.4,3.3,59.9,2.5,72,0.1c5.4-1,8.8-2.4,11.1-3.9c0,0,0.3-0.2,3.7-2.5c2.2-1.4,5.6-3.7,11.1-7.3"/>
				<path id="XMLID_546_" fill="none" stroke="#282828" stroke-width="0.691" stroke-linejoin="round" d="M417.2,862.5
					c48.2-3.6,99.1-6,152.5-6.8c63.2-0.9,123,0.6,179.1,3.8"/>
				<path id="XMLID_545_" fill="none" stroke="#282828" stroke-width="0.691" stroke-linejoin="round" d="M508.3,922.2
					c-0.1,2-10.2,3.8-22.4,4c-12.2,0.1-22.1-1.4-21.9-3.4c0.1-2,10.2-3.8,22.4-4C498.6,918.6,508.4,920.1,508.3,922.2z"/>
				<path id="XMLID_544_" fill="none" stroke="#282828" stroke-width="0.691" stroke-linejoin="round" d="M718.3,923
					c-0.1,2-10.2,3.8-22.4,4c-12.2,0.2-22-1.4-21.9-3.4c0.1-2,10.2-3.8,22.4-4C708.7,919.4,718.5,920.9,718.3,923z"/>
				<polyline id="XMLID_543_" fill="none" stroke="#282828" stroke-width="0.691" stroke-linejoin="round" points="718.3,927.5 
					740.8,927.5 741.2,927.5 837.9,927.5 838.7,927.5 				"/>
				<polyline id="XMLID_542_" fill="none" stroke="#282828" stroke-width="0.691" stroke-linejoin="round" points="147.6,921.8 
					334.2,928.1 334.3,928.1 				"/>
				
					<line id="XMLID_541_" fill="none" stroke="#282828" stroke-width="0.691" stroke-linejoin="round" x1="883.3" y1="913.2" x2="741.2" y2="927.5"/>
				<polyline id="XMLID_540_" fill="none" stroke="#282828" stroke-width="0.691" stroke-linejoin="round" points="979.4,812.6 
					980.3,736.8 979.4,660.9 				"/>
			</g>
		</g>
	</g>
	<g id="REAR">
		<rect id="XMLID_272_" x="1103.5" y="388.2" fill="#7A7A7B" width="312.6" height="19.9"/>
		
			<rect id="XMLID_271_" x="1103.5" y="388.2" fill="none" stroke="#282828" stroke-width="0.691" stroke-linejoin="round" width="312.6" height="19.9"/>
		<path id="XMLID_270_" fill="#FFFFFF" d="M1074.3,260.7c1.3-4,3.1-8.5,5.7-13.3c0.6-1,1.1-2,1.7-3l-5.8-10.2l-13.2,4.1
			c1.7,3.6,3.5,7.4,5.5,11.2C1070.2,253.4,1072.2,257.2,1074.3,260.7"/>
		<path id="XMLID_269_" fill="none" stroke="#282828" stroke-width="0.691" stroke-miterlimit="10" d="M1074.3,260.7
			c1.3-4,3.1-8.5,5.7-13.3c0.6-1,1.1-2,1.7-3l-5.8-10.2l-13.2,4.1c1.7,3.6,3.5,7.4,5.5,11.2C1070.2,253.4,1072.2,257.2,1074.3,260.7
			z"/>
		<path id="XMLID_268_" fill="#A5A4A4" d="M1080.3,225.2c0-7.2-9.1-13.1-20.3-13.1c-11.2,0-20.3,5.9-20.3,13.1
			c0,7.2,9.1,13.1,20.3,13.1C1071.2,238.3,1080.3,232.4,1080.3,225.2"/>
		<path id="XMLID_267_" fill="none" stroke="#282828" stroke-width="0.691" stroke-linejoin="round" d="M1080.3,225.2
			c0-7.2-9.1-13.1-20.3-13.1c-11.2,0-20.3,5.9-20.3,13.1c0,7.2,9.1,13.1,20.3,13.1C1071.2,238.3,1080.3,232.4,1080.3,225.2z"/>
		<path id="XMLID_266_" fill="#DCDBDB" d="M1060,233.6c-8.9,0-15.6-4.4-15.6-8.4c0-4,6.7-8.4,15.6-8.4c8.9,0,15.6,4.4,15.6,8.4
			C1075.6,229.2,1068.9,233.6,1060,233.6"/>
		<path id="XMLID_265_" fill="none" stroke="#282828" stroke-width="0.691" stroke-miterlimit="10" d="M1060,233.6
			c-8.9,0-15.6-4.4-15.6-8.4c0-4,6.7-8.4,15.6-8.4c8.9,0,15.6,4.4,15.6,8.4C1075.6,229.2,1068.9,233.6,1060,233.6z"/>
		<path id="XMLID_264_" fill="#FFFFFF" d="M1446.4,260.7c-1.3-4-3.1-8.5-5.7-13.3c-0.5-1-1.1-2-1.7-3l5.8-10.2l13.2,4.1
			c-1.7,3.6-3.5,7.4-5.5,11.2C1450.6,253.4,1448.5,257.2,1446.4,260.7"/>
		<path id="XMLID_263_" fill="none" stroke="#282828" stroke-width="0.691" stroke-miterlimit="10" d="M1446.4,260.7
			c-1.3-4-3.1-8.5-5.7-13.3c-0.5-1-1.1-2-1.7-3l5.8-10.2l13.2,4.1c-1.7,3.6-3.5,7.4-5.5,11.2
			C1450.6,253.4,1448.5,257.2,1446.4,260.7z"/>
		<path id="XMLID_262_" fill="#A5A4A4" d="M1440.5,225.2c0-7.2,9.1-13.1,20.3-13.1c11.2,0,20.3,5.9,20.3,13.1
			c0,7.2-9.1,13.1-20.3,13.1C1449.5,238.3,1440.5,232.4,1440.5,225.2"/>
		<path id="XMLID_261_" fill="none" stroke="#282828" stroke-width="0.691" stroke-linejoin="round" d="M1440.5,225.2
			c0-7.2,9.1-13.1,20.3-13.1c11.2,0,20.3,5.9,20.3,13.1c0,7.2-9.1,13.1-20.3,13.1C1449.5,238.3,1440.5,232.4,1440.5,225.2z"/>
		<path id="XMLID_260_" fill="#DCDBDB" d="M1460.7,233.6c8.9,0,15.6-4.4,15.6-8.4c0-4-6.7-8.4-15.6-8.4s-15.6,4.4-15.6,8.4
			C1445.2,229.2,1451.8,233.6,1460.7,233.6"/>
		<path id="XMLID_259_" fill="none" stroke="#282828" stroke-width="0.691" stroke-miterlimit="10" d="M1460.7,233.6
			c8.9,0,15.6-4.4,15.6-8.4c0-4-6.7-8.4-15.6-8.4c-8.9,0-15.6,4.4-15.6,8.4C1445.2,229.2,1451.8,233.6,1460.7,233.6z"/>
		<path id="XMLID_258_" fill="#A5A4A4" d="M1065.7,313.7v2.4v120.1c0,6.8,5.5,12.3,12.3,12.3h29.6c6.8,0,12.3-5.5,12.3-12.3v-42.9
			L1065.7,313.7z"/>
		<path id="XMLID_257_" fill="none" stroke="#282828" stroke-width="1.224" stroke-linejoin="round" d="M1065.7,313.7v2.4v120.1
			c0,6.8,5.5,12.3,12.3,12.3h29.6c6.8,0,12.3-5.5,12.3-12.3v-42.9L1065.7,313.7z"/>
		<path id="XMLID_256_" fill="#A5A4A4" d="M1455.1,313.7v2.4v120.1c0,6.8-5.5,12.3-12.3,12.3h-29.6c-6.8,0-12.3-5.5-12.3-12.3
			l0-42.9L1455.1,313.7z"/>
		<path id="XMLID_255_" fill="none" stroke="#282828" stroke-width="1.224" stroke-linejoin="round" d="M1455.1,313.7v2.4v120.1
			c0,6.8-5.5,12.3-12.3,12.3h-29.6c-6.8,0-12.3-5.5-12.3-12.3l0-42.9L1455.1,313.7z"/>
		<path id="XMLID_254_" fill="#FFFFFF" d="M1260.4,397.4h172.3c5.5,0,10.3-3.9,11.4-9.3l10.9-52.5v-59.6c-2.7-4.5-5.4-9.1-8.1-13.6
			c-1.3-4.4-3.3-9.6-6.3-15.1c-3.8-7.2-8.1-12.8-11.8-16.9c-4.3-12.5-10-26.6-17.7-41.6c-6.1-11.8-12.4-22.4-18.6-31.6
			c-4.2-6.2-11-10.1-18.4-10.7c-5.7-0.4-11.4-0.9-17.1-1.2c-33.5-2.2-65.8-3.2-96.8-3.1c-31-0.1-63.3,0.9-96.8,3.1
			c-5.7,0.4-11.4,0.8-17.1,1.2c-7.5,0.6-14.2,4.5-18.4,10.7c-6.2,9.2-12.6,19.8-18.6,31.6c-7.7,15-13.4,29.1-17.7,41.6
			c-3.7,4.1-7.9,9.7-11.8,16.9c-2.9,5.5-4.9,10.7-6.3,15.1c-2.7,4.5-5.4,9.1-8.1,13.6v59.6l10.9,52.5c1.1,5.4,5.9,9.3,11.4,9.3
			H1260.4z"/>
		<path id="XMLID_253_" fill="none" stroke="#282828" stroke-width="1.224" stroke-linejoin="round" d="M1260.4,397.4h172.3
			c5.5,0,10.3-3.9,11.4-9.3l10.9-52.5v-59.6c-2.7-4.5-5.4-9.1-8.1-13.6c-1.3-4.4-3.3-9.6-6.3-15.1c-3.8-7.2-8.1-12.8-11.8-16.9
			c-4.3-12.5-10-26.6-17.7-41.6c-6.1-11.8-12.4-22.4-18.6-31.6c-4.2-6.2-11-10.1-18.4-10.7c-5.7-0.4-11.4-0.9-17.1-1.2
			c-33.5-2.2-65.8-3.2-96.8-3.1c-31-0.1-63.3,0.9-96.8,3.1c-5.7,0.4-11.4,0.8-17.1,1.2c-7.5,0.6-14.2,4.5-18.4,10.7
			c-6.2,9.2-12.6,19.8-18.6,31.6c-7.7,15-13.4,29.1-17.7,41.6c-3.7,4.1-7.9,9.7-11.8,16.9c-2.9,5.5-4.9,10.7-6.3,15.1
			c-2.7,4.5-5.4,9.1-8.1,13.6v59.6l10.9,52.5c1.1,5.4,5.9,9.3,11.4,9.3H1260.4z"/>
		<path id="XMLID_252_" fill="none" stroke="#282828" stroke-width="0.691" stroke-linejoin="round" d="M1088.1,262.5
			c-0.3,4.7-0.5,13.8,1.5,21.3c0,0.1,0.1,0.3,0.1,0.4c3.4,12.8,15.1,21.7,28.4,21.7h142.3"/>
		<path id="XMLID_251_" fill="#A5A4A4" d="M1260.4,217.6h87.7c14.7,0,29.4-1.4,43.8-4.3c0.2-0.1,0.5-0.1,0.7-0.1
			c-0.4-9.2-1.3-19.2-2.9-29.8c-0.9-5.6-1.9-11-2.9-16.2c-18.7-1.1-37.9-2-57.5-2.6c-23.6-0.7-46.5-0.9-68.8-0.7
			c-22.2-0.2-45.2,0-68.8,0.7c-19.7,0.6-38.9,1.4-57.5,2.6c-1.1,5.1-2.1,10.5-2.9,16.2c-1.6,10.6-2.5,20.6-2.9,29.8
			c0.2,0,0.5,0.1,0.7,0.1c14.4,2.8,29.1,4.3,43.8,4.3H1260.4z"/>
		<path id="XMLID_250_" fill="none" stroke="#282828" stroke-width="0.691" stroke-linejoin="round" d="M1260.4,217.6h87.7
			c14.7,0,29.4-1.4,43.8-4.3c0.2-0.1,0.5-0.1,0.7-0.1c-0.4-9.2-1.3-19.2-2.9-29.8c-0.9-5.6-1.9-11-2.9-16.2
			c-18.7-1.1-37.9-2-57.5-2.6c-23.6-0.7-46.5-0.9-68.8-0.7c-22.2-0.2-45.2,0-68.8,0.7c-19.7,0.6-38.9,1.4-57.5,2.6
			c-1.1,5.1-2.1,10.5-2.9,16.2c-1.6,10.6-2.5,20.6-2.9,29.8c0.2,0,0.5,0.1,0.7,0.1c14.4,2.8,29.1,4.3,43.8,4.3H1260.4z"/>
		<path id="XMLID_249_" fill="none" stroke="#282828" stroke-width="0.691" stroke-linejoin="round" d="M1432.6,262.5
			c0.3,4.7,0.4,13.8-1.5,21.3c0,0.1-0.1,0.3-0.1,0.4c-3.4,12.8-15.1,21.7-28.4,21.7h-142.3"/>
		<path id="XMLID_248_" fill="#A5A4A4" d="M1087.7,245.6c0.1,5.6,0.2,11.3,0.4,16.9l85.9,6.3l11.9-16.4c-11-5.6-32.1-14.3-59.6-13.8
			C1110.3,238.9,1097.1,242.3,1087.7,245.6"/>
		<path id="XMLID_247_" fill="none" stroke="#282828" stroke-width="0.691" stroke-linejoin="round" d="M1087.7,245.6
			c0.1,5.6,0.2,11.3,0.4,16.9l85.9,6.3l11.9-16.4c-11-5.6-32.1-14.3-59.6-13.8C1110.3,238.9,1097.1,242.3,1087.7,245.6z"/>
		<path id="XMLID_246_" fill="#A5A4A4" d="M1433,245.6c-0.1,5.6-0.2,11.3-0.4,16.9c-28.6,2.1-57.3,4.2-85.9,6.3l-11.9-16.4
			c11-5.6,32.1-14.3,59.6-13.8C1410.4,238.9,1423.7,242.3,1433,245.6"/>
		<path id="XMLID_245_" fill="none" stroke="#282828" stroke-width="0.691" stroke-linejoin="round" d="M1433,245.6
			c-0.1,5.6-0.2,11.3-0.4,16.9c-28.6,2.1-57.3,4.2-85.9,6.3l-11.9-16.4c11-5.6,32.1-14.3,59.6-13.8
			C1410.4,238.9,1423.7,242.3,1433,245.6z"/>
		<path id="XMLID_244_" fill="#A5A4A4" d="M1164.8,363.9l-15.4,10.7c-2.2,1.5-4.8,2.3-7.4,2.3h-29.4c3.6-3.5,9.8-8.5,18.8-11.8
			C1146.4,359.6,1159.7,362.5,1164.8,363.9"/>
		<path id="XMLID_243_" fill="none" stroke="#282828" stroke-width="0.691" stroke-linejoin="round" d="M1164.8,363.9l-15.4,10.7
			c-2.2,1.5-4.8,2.3-7.4,2.3h-29.4c3.6-3.5,9.8-8.5,18.8-11.8C1146.4,359.6,1159.7,362.5,1164.8,363.9z"/>
		<path id="XMLID_242_" fill="#A5A4A4" d="M1355.9,363.9l15.4,10.7c2.2,1.5,4.8,2.3,7.4,2.3h29.4c-3.6-3.5-9.8-8.5-18.8-11.8
			C1374.3,359.6,1361,362.5,1355.9,363.9"/>
		<path id="XMLID_241_" fill="none" stroke="#282828" stroke-width="0.691" stroke-linejoin="round" d="M1355.9,363.9l15.4,10.7
			c2.2,1.5,4.8,2.3,7.4,2.3h29.4c-3.6-3.5-9.8-8.5-18.8-11.8C1374.3,359.6,1361,362.5,1355.9,363.9z"/>
		<path id="XMLID_240_" fill="none" stroke="#282828" stroke-width="0.691" stroke-linejoin="round" d="M1445.6,381h-17l-6.8-6.5
			c-14.3-13.6-33.3-21.3-53-21.3h-108.4H1152c-19.8,0-38.7,7.6-53,21.3l-6.8,6.5h-17"/>
		<polyline id="XMLID_239_" fill="none" stroke="#282828" stroke-width="0.691" stroke-linejoin="round" points="1334.8,252.4 
			1260.4,252.4 1185.9,252.4 		"/>
		<path id="XMLID_238_" fill="none" stroke="#282828" stroke-width="0.691" stroke-linejoin="round" d="M1346.7,268.8l-8.4,7.6
			c-5.5,5-12.6,7.7-20,7.7h-58h-58c-7.4,0-14.5-2.8-20-7.7l-8.4-7.6"/>
		<path id="XMLID_237_" fill="none" stroke="#282828" stroke-width="0.691" stroke-linejoin="round" d="M1391.8,213.3
			c0.2,10.6,0,21.9-0.7,33.7c-1.2,19.3-3.7,37.1-7,53.3c-2.8,13.9-14.9,23.9-29,23.9h-94.7h-94.7c-14.1,0-26.3-10-29-23.9
			c-3.2-16.2-5.8-34.1-7-53.3c-0.7-11.8-0.9-23.1-0.7-33.7"/>
		<path id="XMLID_236_" fill="#FFFFFF" d="M1134.1,167.2c1-3.4,2.4-7.5,4.7-12c1.7-3.3,3.5-6,5.2-8.3"/>
		<path id="XMLID_235_" fill="none" stroke="#282828" stroke-width="0.691" stroke-linejoin="round" d="M1134.1,167.2
			c1-3.4,2.4-7.5,4.7-12c1.7-3.3,3.5-6,5.2-8.3"/>
		<path id="XMLID_234_" fill="#FFFFFF" d="M1386.7,167.2c-1-3.4-2.4-7.5-4.7-12c-1.7-3.3-3.5-6-5.2-8.3"/>
		<path id="XMLID_233_" fill="none" stroke="#282828" stroke-width="0.691" stroke-linejoin="round" d="M1386.7,167.2
			c-1-3.4-2.4-7.5-4.7-12c-1.7-3.3-3.5-6-5.2-8.3"/>
		<path id="XMLID_232_" fill="none" stroke="#282828" stroke-width="0.691" stroke-linejoin="round" d="M1088.1,262.5
			c-7.4,14.9-14.8,29.8-22.2,44.8"/>
		<path id="XMLID_231_" fill="none" stroke="#282828" stroke-width="0.691" stroke-linejoin="round" d="M1432.6,262.5
			c7.4,14.9,15,30.1,22.4,45"/>
		<rect id="XMLID_230_" x="1232.2" y="164" fill="#DCDBDB" width="56.3" height="6.5"/>
		
			<rect id="XMLID_229_" x="1232.2" y="164" fill="none" stroke="#282828" stroke-width="0.691" stroke-linejoin="round" width="56.3" height="6.5"/>
		<path id="XMLID_228_" fill="#A5A4A4" d="M1348.2,385.6h-14.6c-5.3,0-9.6,4.3-9.6,9.6v1.7c0,5.3,4.3,9.6,9.6,9.6h14.6
			c5.3,0,9.6-4.3,9.6-9.6v-1.7C1357.7,389.9,1353.4,385.6,1348.2,385.6"/>
		<path id="XMLID_227_" fill="none" stroke="#282828" stroke-width="0.691" stroke-linejoin="round" d="M1348.2,385.6h-14.6
			c-5.3,0-9.6,4.3-9.6,9.6v1.7c0,5.3,4.3,9.6,9.6,9.6h14.6c5.3,0,9.6-4.3,9.6-9.6v-1.7C1357.7,389.9,1353.4,385.6,1348.2,385.6z"/>
		<path id="XMLID_226_" fill="#636161" d="M1346.6,396c0-3.1-2.6-5.6-5.7-5.6c-3.2,0-5.7,2.5-5.7,5.6c0,3.1,2.6,5.6,5.7,5.6
			C1344,401.6,1346.6,399.1,1346.6,396"/>
		
			<ellipse id="XMLID_225_" fill="none" stroke="#282828" stroke-width="0.691" stroke-linejoin="round" cx="1340.9" cy="396" rx="5.7" ry="5.6"/>
		<path id="XMLID_224_" fill="#A5A4A4" d="M1186,385.6h-14.6c-5.3,0-9.6,4.3-9.6,9.6v1.7c0,5.3,4.3,9.6,9.6,9.6h14.6
			c5.3,0,9.6-4.3,9.6-9.6v-1.7C1195.6,389.9,1191.3,385.6,1186,385.6"/>
		<path id="XMLID_223_" fill="none" stroke="#282828" stroke-width="0.691" stroke-linejoin="round" d="M1186,385.6h-14.6
			c-5.3,0-9.6,4.3-9.6,9.6v1.7c0,5.3,4.3,9.6,9.6,9.6h14.6c5.3,0,9.6-4.3,9.6-9.6v-1.7C1195.6,389.9,1191.3,385.6,1186,385.6z"/>
		<path id="XMLID_222_" fill="#636161" d="M1184.5,396c0-3.1-2.6-5.6-5.7-5.6c-3.2,0-5.7,2.5-5.7,5.6c0,3.1,2.6,5.6,5.7,5.6
			C1181.9,401.6,1184.5,399.1,1184.5,396"/>
		
			<ellipse id="XMLID_221_" fill="none" stroke="#282828" stroke-width="0.691" stroke-linejoin="round" cx="1178.7" cy="396" rx="5.7" ry="5.6"/>
	</g>
</g>
<g id="zONES">
</g>
</svg>
